<svg width="74" height="74" viewBox="0 0 74 74" fill="none" xmlns="http://www.w3.org/2000/svg">
<circle cx="37" cy="37" r="37" fill="#F9E41C"/>
<mask id="mask0_81_1474" style="mask-type:alpha" maskUnits="userSpaceOnUse" x="0" y="0" width="74" height="74">
<circle cx="37" cy="37" r="37" fill="#F9E41C"/>
</mask>
<g mask="url(#mask0_81_1474)">
<path fill-rule="evenodd" clip-rule="evenodd" d="M45.0992 54.1357C58.5252 54.1357 69.8433 64.1463 71.4796 77.4711C74.4625 101.702 78.7011 136.108 78.7011 136.108H-5.13892C-5.13892 136.108 -0.906032 101.702 2.07689 77.4711C3.71892 64.1463 15.037 54.1357 28.463 54.1357H45.0992Z" fill="#99ECFF"/>
<path d="M42.2233 11.6109C29.6461 8.60411 17.0127 16.3625 14.006 28.9397C10.9992 41.517 18.7576 54.1501 31.3348 57.1569C43.9121 60.1637 56.5454 52.4055 59.5522 39.8283C62.559 27.251 54.8006 14.6177 42.2233 11.6109Z" fill="#FFF8E1"/>
<mask id="mask1_81_1474" style="mask-type:luminance" maskUnits="userSpaceOnUse" x="13" y="10" width="48" height="48">
<path d="M42.2233 11.6109C29.6461 8.60411 17.0127 16.3625 14.006 28.9397C10.9992 41.517 18.7576 54.1501 31.3348 57.1569C43.9121 60.1637 56.5454 52.4055 59.5522 39.8283C62.559 27.251 54.8006 14.6177 42.2233 11.6109Z" fill="white"/>
</mask>
<g mask="url(#mask1_81_1474)">
<path d="M24.7942 26.4351C33.9202 23.6941 39.951 16.9197 38.2643 11.304C36.5777 5.6882 27.8123 3.35768 18.6863 6.09862C9.56033 8.83955 3.52953 15.614 5.21618 21.2298C6.90283 26.8455 15.6682 29.176 24.7942 26.4351Z" fill="#0D3036"/>
<path d="M42.5715 31.0822C50.0194 37.0257 59.022 38.1285 62.6794 33.5454C66.3368 28.9623 63.264 20.4288 55.8161 14.4853C48.3682 8.5418 39.3655 7.43898 35.7082 12.0221C32.0508 16.6052 35.1236 25.1387 42.5715 31.0822Z" fill="#0D3036"/>
<path d="M25.0297 34.0236C25.5144 34.0186 25.9033 33.6217 25.8984 33.137C25.8934 32.6523 25.4964 32.2634 25.0117 32.2683C24.527 32.2733 24.1381 32.6703 24.1431 33.155C24.1481 33.6397 24.545 34.0286 25.0297 34.0236Z" fill="#0D3036"/>
<path d="M32.0678 35.6359C32.5525 35.6309 32.9414 35.234 32.9364 34.7493C32.9314 34.2646 32.5345 33.8757 32.0498 33.8806C31.5651 33.8856 31.1762 34.2826 31.1811 34.7673C31.1861 35.252 31.5831 35.6409 32.0678 35.6359Z" fill="#0D3036"/>
<path d="M30.7606 37.8781C31.0229 37.7726 31.3209 37.8999 31.4264 38.1622C31.5319 38.4244 31.405 38.7226 31.1428 38.8281C29.9501 39.3079 28.4421 39.178 27.3054 38.9664C26.7236 38.8581 26.211 38.7227 25.8442 38.6145C25.6604 38.5603 25.5122 38.5129 25.4092 38.4785C25.3577 38.4614 25.3174 38.4473 25.2895 38.4375C25.2755 38.4326 25.2643 38.4288 25.2566 38.4261C25.2529 38.4247 25.2497 38.4237 25.2476 38.4229C25.2466 38.4225 25.2459 38.422 25.2453 38.4218L25.2438 38.4215C24.9784 38.3243 24.8419 38.0304 24.9389 37.765C25.036 37.4995 25.33 37.3626 25.5955 37.4596L25.5964 37.4604C25.5975 37.4608 25.5994 37.4613 25.6021 37.4622C25.6076 37.4642 25.6166 37.4675 25.6282 37.4716C25.6516 37.4798 25.6869 37.4921 25.7332 37.5075C25.8261 37.5385 25.9627 37.5823 26.1336 37.6326C26.4761 37.7336 26.9535 37.8597 27.4923 37.9601C28.5971 38.1657 29.8554 38.2422 30.7606 37.8781Z" fill="#0D3036"/>
<path d="M32.2617 31.2864C32.8554 31.3334 33.3977 31.5143 33.7823 31.6763C33.9768 31.7581 34.1366 31.8377 34.2488 31.8973C34.305 31.9271 34.3496 31.9521 34.3811 31.9702C34.3968 31.9793 34.4094 31.9865 34.4184 31.9919C34.423 31.9946 34.4268 31.9971 34.4296 31.9988C34.4309 31.9997 34.4322 32.0002 34.4331 32.0008L34.4341 32.0018L34.4346 32.0018L34.4351 32.0023C34.6766 32.1514 34.7515 32.4682 34.6025 32.7097C34.4627 32.936 34.1758 33.0159 33.9415 32.9022L33.8956 32.8771C33.8948 32.8766 33.8934 32.8758 33.8915 32.8746C33.8868 32.8718 33.8787 32.8671 33.8678 32.8608C33.8458 32.8481 33.8116 32.8289 33.7668 32.8051C33.6769 32.7574 33.5452 32.6919 33.3836 32.6239C33.056 32.486 32.6261 32.3463 32.1809 32.311C31.898 32.2886 31.6866 32.0411 31.709 31.7583C31.7314 31.4754 31.9788 31.264 32.2617 31.2864Z" fill="#0D3036"/>
<path d="M26.9051 30.3598C26.4295 30.1614 25.9361 30.1021 25.5765 30.0884C25.3938 30.0815 25.2383 30.086 25.1272 30.0925C25.0716 30.0958 25.0266 30.0996 24.9944 30.1027C24.9783 30.1042 24.9652 30.1057 24.9556 30.1068C24.951 30.1073 24.9471 30.1076 24.9442 30.108C24.9427 30.1081 24.9414 30.1086 24.9403 30.1087C24.9398 30.1088 24.9389 30.1088 24.9385 30.1089L24.9381 30.1087L24.9378 30.1091L24.9374 30.1089C24.6577 30.1448 24.4597 30.4007 24.4955 30.6804C24.5313 30.9602 24.7873 31.158 25.067 31.1223L25.0673 31.1219C25.0679 31.1218 25.0689 31.1223 25.07 31.1222C25.0741 31.1217 25.0815 31.1208 25.0918 31.1198C25.1125 31.1178 25.1447 31.1149 25.1866 31.1124C25.271 31.1075 25.393 31.1036 25.5373 31.1091C25.8315 31.1203 26.1912 31.1694 26.5121 31.3033C26.7724 31.4117 27.0718 31.2883 27.1803 31.028C27.2888 30.7677 27.1654 30.4684 26.9051 30.3598ZM25.0659 31.1223L25.0664 31.1225L25.067 31.1223L25.0673 31.1219C25.0667 31.122 25.0661 31.1223 25.0659 31.1223Z" fill="#0D3036"/>
</g>
</g>
</svg>
