<svg width="74" height="74" viewBox="0 0 74 74" fill="none" xmlns="http://www.w3.org/2000/svg">
<circle cx="37" cy="37" r="37" fill="#16B9B3"/>
<mask id="mask0_81_1356" style="mask-type:alpha" maskUnits="userSpaceOnUse" x="0" y="0" width="74" height="74">
<circle cx="37" cy="37" r="37" fill="#16B9B3"/>
</mask>
<g mask="url(#mask0_81_1356)">
<path fill-rule="evenodd" clip-rule="evenodd" d="M45.0992 54.1357C58.5252 54.1357 69.8433 64.1463 71.4796 77.4711C74.4625 101.702 78.7011 136.108 78.7011 136.108H-5.13892C-5.13892 136.108 -0.906032 101.702 2.07689 77.4711C3.71892 64.1463 15.037 54.1357 28.463 54.1357H45.0992Z" fill="#FFA10B"/>
<path fill-rule="evenodd" clip-rule="evenodd" d="M65.6882 49.6999H11.8195C11.8195 49.6999 12.642 31.0953 22.6219 19.2676C31.0959 9.22329 46.4118 9.22329 54.8901 19.2676C64.87 31.0953 65.6882 49.6999 65.6882 49.6999Z" fill="#0D3036"/>
<path d="M35.2363 10.7915C22.3046 10.7915 11.8215 21.2747 11.8215 34.2063C11.8215 47.138 22.3046 57.6209 35.2363 57.6209C48.168 57.6209 58.6511 47.138 58.6511 34.2063C58.6511 21.2747 48.168 10.7915 35.2363 10.7915Z" fill="#FFF8E1"/>
<mask id="mask1_81_1356" style="mask-type:luminance" maskUnits="userSpaceOnUse" x="11" y="10" width="48" height="48">
<path d="M35.2363 10.7915C22.3046 10.7915 11.8215 21.2747 11.8215 34.2063C11.8215 47.138 22.3046 57.6209 35.2363 57.6209C48.168 57.6209 58.6511 47.138 58.6511 34.2063C58.6511 21.2747 48.168 10.7915 35.2363 10.7915Z" fill="white"/>
</mask>
<g mask="url(#mask1_81_1356)">
<path d="M24.6147 24.1317C33.416 20.4802 38.7293 13.1296 36.4823 7.71364C34.2354 2.29768 25.279 0.867268 16.4777 4.51876C7.67639 8.17025 2.36303 15.5209 4.60999 20.9368C6.85695 26.3528 15.8134 27.7832 24.6147 24.1317Z" fill="#0D3036"/>
<path d="M42.7703 26.9561C50.7821 32.1144 59.8501 32.2994 63.0243 27.3693C66.1985 22.4392 62.2769 14.2609 54.2652 9.10264C46.2534 3.94433 37.1853 3.75933 34.0111 8.68944C30.8369 13.6196 34.7586 21.7978 42.7703 26.9561Z" fill="#0D3036"/>
<path d="M25.7814 29.352C26.2661 29.352 26.6591 28.9591 26.6591 28.4744C26.6591 27.9896 26.2661 27.5967 25.7814 27.5967C25.2966 27.5967 24.9037 27.9896 24.9037 28.4744C24.9037 28.9591 25.2966 29.352 25.7814 29.352Z" fill="#0D3036"/>
<path d="M32.8024 31.0366C33.2872 31.0366 33.6801 30.6437 33.6801 30.1589C33.6801 29.6742 33.2872 29.2812 32.8024 29.2812C32.3177 29.2812 31.9247 29.6742 31.9247 30.1589C31.9247 30.6437 32.3177 31.0366 32.8024 31.0366Z" fill="#0D3036"/>
<path d="M32.5501 33.0064C32.774 32.832 33.0969 32.8723 33.2713 33.0962C33.4456 33.3201 33.4057 33.6429 33.1819 33.8173C31.9648 34.7651 30.2149 35.0564 28.852 35.1322C28.1572 35.1708 27.5342 35.1549 27.085 35.1292C26.8601 35.1163 26.6777 35.1007 26.5506 35.0885C26.487 35.0824 26.4371 35.0768 26.4025 35.0729C26.3853 35.071 26.3718 35.0696 26.3624 35.0684C26.3577 35.0679 26.354 35.0673 26.3513 35.0669C26.35 35.0668 26.3486 35.067 26.3478 35.0669L26.3468 35.0664H26.3463C26.0648 35.0304 25.8656 34.7728 25.9017 34.4913C25.9378 34.2099 26.1953 34.0112 26.4768 34.0472C26.477 34.0472 26.4777 34.0471 26.4783 34.0472C26.4797 34.0474 26.4821 34.0478 26.4853 34.0482C26.4922 34.049 26.5033 34.05 26.5179 34.0517C26.5472 34.055 26.5913 34.0602 26.6489 34.0657C26.7644 34.0769 26.9334 34.0909 27.1437 34.1029C27.565 34.127 28.1479 34.1419 28.7948 34.1059C30.1156 34.0324 31.5934 33.7513 32.5501 33.0064Z" fill="#0D3036"/>
</g>
</g>
</svg>
