<svg width="486" height="367" viewBox="0 0 486 367" fill="none" xmlns="http://www.w3.org/2000/svg">
<path d="M110.357 64.0049C93.8226 64.0049 65.41 74.293 55.2761 100.437C54.6991 101.926 55.7707 103.533 57.3688 103.533H163.348C164.943 103.533 166.017 101.926 165.44 100.437C155.307 74.293 126.894 64.0049 110.36 64.0049H110.357Z" fill="#FFA10B"/>
<path d="M371.482 64.0049C354.947 64.0049 326.535 74.293 316.401 100.437C315.824 101.926 316.895 103.533 318.493 103.533H424.472C426.068 103.533 427.142 101.926 426.565 100.437C416.431 74.293 388.019 64.0049 371.484 64.0049H371.482Z" fill="#A9EDE8"/>
<path d="M110.357 255.25C93.8226 255.25 65.41 265.539 55.2761 291.683C54.6991 293.172 55.7707 294.778 57.3688 294.778H163.348C164.943 294.778 166.017 293.172 165.44 291.683C155.307 265.539 126.894 255.25 110.36 255.25H110.357Z" fill="#A9EDE8"/>
<path d="M371.482 255.25C354.947 255.25 326.535 265.539 316.401 291.683C315.824 293.172 316.895 294.778 318.494 294.778H424.472C426.068 294.778 427.142 293.172 426.565 291.683C416.431 265.539 388.019 255.25 371.484 255.25H371.482Z" fill="#F9E41C"/>
<path d="M240.706 0C224.172 0 195.76 10.2881 185.626 36.4325C185.049 37.9216 186.12 39.5277 187.718 39.5277H293.697C295.293 39.5277 296.367 37.9216 295.79 36.4325C285.656 10.2881 257.244 0 240.709 0H240.706Z" fill="#A9EDE8"/>
<path d="M240.706 327.23C224.172 327.23 195.76 337.518 185.626 363.662C185.049 365.152 186.12 366.758 187.718 366.758H293.697C295.293 366.758 296.367 365.152 295.79 363.662C285.656 337.518 257.244 327.23 240.709 327.23H240.706Z" fill="#A9EDE8"/>
<path d="M55.2389 155.949C38.7045 155.949 10.292 166.237 0.158102 192.382C-0.418925 193.871 0.652663 195.477 2.25079 195.477H108.23C109.825 195.477 110.899 193.871 110.322 192.382C100.188 166.237 71.7759 155.949 55.2416 155.949H55.2389Z" fill="#A9EDE8"/>
<path d="M429.849 155.95C413.315 155.95 384.902 166.238 374.768 192.382C374.191 193.871 375.263 195.477 376.861 195.477H482.84C484.435 195.477 485.51 193.871 484.933 192.382C474.799 166.238 446.386 155.95 429.852 155.95H429.849Z" fill="#A9EDE8"/>
<path d="M357.191 232.164C357.514 232.012 357.866 232.25 357.977 232.696C358.044 232.963 358.107 233.222 358.167 233.47C358.275 233.917 358.1 234.401 357.776 234.551C357.452 234.7 357.101 234.459 356.992 234.012C356.933 233.767 356.87 233.513 356.805 233.248C356.694 232.802 356.867 232.317 357.191 232.164ZM355.218 225.023C355.536 224.847 355.897 225.058 356.025 225.496C356.185 226.044 356.338 226.577 356.484 227.093C356.609 227.532 356.451 228.028 356.132 228.199C355.814 228.37 355.455 228.153 355.33 227.714C355.185 227.203 355.034 226.676 354.875 226.133C354.748 225.696 354.901 225.199 355.218 225.023ZM353.021 218.059C353.333 217.864 353.7 218.054 353.842 218.483C354.012 219 354.178 219.51 354.339 220.01C354.478 220.441 354.337 220.946 354.024 221.137C353.711 221.328 353.345 221.133 353.207 220.702C353.047 220.207 352.883 219.702 352.714 219.189C352.572 218.76 352.71 218.254 353.021 218.059ZM350.612 211.201C350.917 210.99 351.29 211.159 351.444 211.58C351.63 212.091 351.813 212.597 351.992 213.097C352.143 213.52 352.016 214.032 351.709 214.24C351.402 214.448 351.031 214.274 350.88 213.851C350.703 213.355 350.522 212.854 350.337 212.347C350.184 211.926 350.306 211.413 350.612 211.201ZM348.016 204.48C348.316 204.253 348.693 204.402 348.858 204.815C349.057 205.314 349.253 205.809 349.445 206.3C349.608 206.715 349.496 207.233 349.195 207.457C348.894 207.681 348.518 207.527 348.355 207.112C348.164 206.625 347.97 206.134 347.773 205.64C347.608 205.227 347.717 204.707 348.016 204.48ZM345.243 197.891C345.537 197.649 345.917 197.781 346.093 198.185C346.303 198.669 346.51 199.15 346.714 199.628C346.887 200.034 346.789 200.557 346.494 200.796C346.199 201.035 345.819 200.899 345.646 200.493C345.444 200.019 345.239 199.542 345.03 199.062C344.854 198.658 344.95 198.133 345.243 197.891ZM342.295 191.427C342.582 191.171 342.966 191.284 343.152 191.68C343.379 192.164 343.603 192.646 343.825 193.125C344.009 193.523 343.924 194.05 343.636 194.304C343.347 194.557 342.964 194.439 342.78 194.042C342.56 193.566 342.337 193.089 342.112 192.609C341.926 192.213 342.008 191.684 342.295 191.427ZM339.201 185.142C339.482 184.872 339.868 184.967 340.064 185.354C340.299 185.819 340.533 186.283 340.763 186.745C340.957 187.134 340.885 187.665 340.603 187.932C340.321 188.199 339.935 188.101 339.741 187.712C339.513 187.253 339.282 186.792 339.048 186.331C338.852 185.944 338.92 185.412 339.201 185.142ZM335.936 178.976C336.21 178.693 336.598 178.769 336.803 179.147C337.053 179.606 337.301 180.064 337.546 180.521C337.749 180.901 337.691 181.435 337.416 181.715C337.14 181.995 336.753 181.914 336.549 181.535C336.306 181.082 336.061 180.627 335.812 180.171C335.607 179.794 335.662 179.259 335.936 178.976ZM332.537 172.994C332.804 172.699 333.194 172.757 333.408 173.125C333.665 173.565 333.92 174.005 334.172 174.443C334.385 174.813 334.339 175.35 334.071 175.642C333.803 175.935 333.413 175.874 333.201 175.504C332.95 175.068 332.698 174.632 332.443 174.195C332.228 173.828 332.27 173.29 332.537 172.994ZM328.983 167.156C329.242 166.848 329.633 166.889 329.856 167.246C330.127 167.678 330.395 168.11 330.66 168.542C330.882 168.901 330.85 169.44 330.589 169.745C330.328 170.05 329.937 170.006 329.716 169.646C329.452 169.218 329.186 168.789 328.918 168.36C328.695 168.003 328.723 167.464 328.983 167.156ZM325.287 161.483C325.539 161.164 325.931 161.186 326.163 161.532C326.444 161.952 326.723 162.373 326.999 162.792C327.229 163.141 327.21 163.681 326.957 163.998C326.703 164.315 326.311 164.289 326.081 163.939C325.807 163.523 325.53 163.107 325.252 162.69C325.02 162.343 325.036 161.803 325.287 161.483ZM321.468 155.997C321.712 155.667 322.104 155.671 322.344 156.007C322.631 156.408 322.916 156.81 323.198 157.211C323.437 157.55 323.431 158.09 323.185 158.419C322.939 158.747 322.547 158.739 322.309 158.4C322.028 158.002 321.746 157.603 321.461 157.205C321.221 156.869 321.224 156.328 321.468 155.997ZM317.514 150.681C317.75 150.339 318.143 150.326 318.39 150.651C318.688 151.041 318.984 151.432 319.278 151.823C319.524 152.15 319.531 152.691 319.294 153.03C319.056 153.369 318.664 153.378 318.418 153.051C318.126 152.663 317.832 152.276 317.536 151.888C317.288 151.563 317.279 151.022 317.514 150.681ZM313.434 145.542C313.661 145.19 314.053 145.158 314.309 145.472C314.617 145.85 314.923 146.23 315.228 146.609C315.481 146.925 315.501 147.465 315.272 147.814C315.042 148.164 314.651 148.191 314.397 147.875C314.095 147.499 313.791 147.123 313.485 146.747C313.229 146.434 313.206 145.894 313.434 145.542ZM309.233 140.585C309.452 140.223 309.843 140.175 310.106 140.477C310.424 140.843 310.74 141.209 311.054 141.576C311.315 141.88 311.347 142.419 311.126 142.779C310.905 143.139 310.514 143.184 310.253 142.879C309.941 142.515 309.627 142.151 309.311 141.787C309.049 141.485 309.014 140.947 309.233 140.585ZM304.918 135.816C305.129 135.445 305.518 135.38 305.787 135.67C306.114 136.022 306.44 136.376 306.764 136.729C307.032 137.022 307.077 137.56 306.864 137.929C306.651 138.298 306.262 138.36 305.994 138.067C305.672 137.716 305.349 137.365 305.024 137.015C304.755 136.725 304.707 136.188 304.918 135.816ZM300.5 131.244C300.702 130.864 301.09 130.782 301.366 131.06C301.7 131.397 302.032 131.735 302.363 132.074C302.638 132.355 302.695 132.889 302.491 133.268C302.287 133.646 301.899 133.725 301.624 133.444C301.296 133.108 300.966 132.772 300.634 132.437C300.358 132.159 300.298 131.625 300.5 131.244ZM295.982 126.866C296.175 126.478 296.561 126.378 296.844 126.645C297.184 126.966 297.522 127.288 297.859 127.611C298.14 127.88 298.209 128.412 298.014 128.799C297.818 129.186 297.432 129.282 297.152 129.012C296.817 128.692 296.481 128.373 296.143 128.054C295.861 127.787 295.789 127.255 295.982 126.866ZM291.368 122.682C291.552 122.285 291.936 122.169 292.224 122.424C292.57 122.729 292.915 123.036 293.258 123.344C293.544 123.601 293.625 124.13 293.439 124.525C293.252 124.92 292.868 125.033 292.581 124.775C292.241 124.47 291.899 124.165 291.555 123.861C291.267 123.606 291.183 123.079 291.368 122.682ZM286.662 118.692C286.838 118.287 287.218 118.156 287.512 118.398C287.864 118.69 288.215 118.982 288.565 119.275C288.857 119.52 288.95 120.045 288.772 120.448C288.594 120.85 288.213 120.978 287.921 120.733C287.574 120.442 287.225 120.152 286.875 119.862C286.581 119.62 286.486 119.096 286.662 118.692ZM281.854 114.884C282.02 114.473 282.398 114.325 282.696 114.555C282.879 114.696 283.062 114.837 283.245 114.979C283.426 115.12 283.607 115.261 283.787 115.402C284.084 115.635 284.189 116.156 284.02 116.566C283.85 116.976 283.472 117.119 283.174 116.886C282.996 116.746 282.816 116.606 282.637 116.467C282.455 116.326 282.274 116.185 282.093 116.046C281.794 115.816 281.687 115.296 281.854 114.884ZM276.893 111.274C277.049 110.854 277.422 110.687 277.726 110.901C278.099 111.162 278.471 111.426 278.843 111.693C279.147 111.91 279.265 112.426 279.107 112.844C278.949 113.262 278.575 113.425 278.272 113.208C277.903 112.943 277.534 112.681 277.164 112.422C276.86 112.208 276.738 111.694 276.893 111.274ZM271.839 107.925C271.983 107.497 272.352 107.311 272.662 107.509C273.04 107.751 273.419 107.995 273.797 108.241C274.106 108.443 274.238 108.951 274.092 109.377C273.945 109.804 273.576 109.986 273.267 109.784C272.892 109.54 272.516 109.298 272.141 109.058C271.831 108.86 271.696 108.353 271.839 107.925ZM266.701 104.836C266.833 104.401 267.197 104.197 267.512 104.379C267.896 104.601 268.28 104.825 268.663 105.051C268.977 105.237 269.123 105.739 268.988 106.173C268.853 106.606 268.489 106.807 268.175 106.621C267.794 106.396 267.414 106.173 267.033 105.953C266.718 105.771 266.569 105.271 266.701 104.836ZM261.488 102.007C261.609 101.566 261.966 101.343 262.286 101.51C262.674 101.712 263.063 101.916 263.451 102.123C263.77 102.293 263.928 102.788 263.805 103.228C263.681 103.667 263.323 103.886 263.004 103.716C262.619 103.51 262.233 103.308 261.848 103.107C261.528 102.94 261.367 102.448 261.488 102.007ZM256.2 99.4278C256.309 98.9815 256.661 98.7424 256.985 98.8934C257.38 99.0777 257.775 99.2646 258.17 99.4537C258.493 99.6083 258.665 100.095 258.552 100.54C258.44 100.985 258.087 101.221 257.763 101.066C257.371 100.879 256.98 100.694 256.588 100.511C256.264 100.36 256.09 99.8744 256.2 99.4278ZM250.85 97.1017C250.949 96.6505 251.294 96.3949 251.622 96.5307C252.021 96.6964 252.421 96.8646 252.821 97.0351C253.147 97.1744 253.331 97.6526 253.23 98.103C253.128 98.5533 252.781 98.8051 252.455 98.6658C252.058 98.4966 251.661 98.3301 251.265 98.1656C250.937 98.0296 250.752 97.5532 250.85 97.1017ZM245.451 95.0241C245.538 94.5684 245.878 94.297 246.209 94.418C246.61 94.5649 247.012 94.7142 247.414 94.8657C247.744 94.99 247.939 95.4597 247.849 95.9145C247.759 96.3693 247.418 96.6374 247.088 96.5131C246.688 96.3627 246.289 96.2146 245.89 96.0688C245.56 95.9477 245.363 95.4798 245.451 95.0241ZM240.009 93.1899C240.086 92.7306 240.418 92.4442 240.752 92.5505C241.155 92.6793 241.56 92.8107 241.965 92.944C242.297 93.0535 242.503 93.5142 242.423 93.9728C242.344 94.431 242.01 94.714 241.677 94.6048C241.275 94.4724 240.873 94.3417 240.472 94.2137C240.139 94.1073 239.932 93.6492 240.009 93.1899ZM234.517 91.59C234.583 91.1277 234.909 90.8271 235.245 90.9189C235.654 91.0311 236.065 91.1458 236.476 91.2624C236.811 91.3575 237.027 91.8086 236.958 92.2703C236.889 92.7321 236.561 93.0299 236.226 92.9348C235.818 92.819 235.41 92.7053 235.004 92.5938C234.668 92.5019 234.45 92.0524 234.517 91.59ZM228.999 90.2236C229.056 89.7587 229.375 89.4453 229.712 89.5232C230.122 89.6178 230.532 89.7146 230.943 89.8134C231.28 89.8944 231.506 90.3361 231.447 90.8005C231.388 91.265 231.067 91.576 230.73 91.495C230.322 91.3969 229.914 91.3012 229.508 91.2073C229.17 91.1294 228.942 90.6886 228.999 90.2236ZM224.154 88.356C224.565 88.4339 224.977 88.5133 225.39 88.5953C225.729 88.6625 225.964 89.0957 225.915 89.5624C225.866 90.029 225.552 90.3525 225.214 90.2853C224.803 90.2038 224.394 90.1242 223.985 90.0468C223.647 89.9826 223.41 89.5525 223.456 89.0855C223.503 88.6184 223.815 88.2918 224.154 88.356ZM169.308 88.1259C169.647 88.0649 169.958 88.3939 170.002 88.8613C170.047 89.3287 169.808 89.7578 169.469 89.8192C169.267 89.8557 169.068 89.892 168.871 89.9284C168.532 89.9913 168.22 89.6629 168.174 89.1956C168.129 88.7285 168.366 88.299 168.705 88.236C168.903 88.1993 169.105 88.1627 169.308 88.1259ZM218.565 87.4097C218.979 87.4716 219.395 87.5357 219.811 87.6015C220.151 87.6555 220.394 88.0787 220.355 88.5469C220.316 89.0152 220.009 89.351 219.669 89.2973C219.256 89.2319 218.843 89.1686 218.432 89.1072C218.092 89.0564 217.846 88.6354 217.883 88.1668C217.92 87.6981 218.225 87.3592 218.565 87.4097ZM174.906 87.2322C175.246 87.1847 175.55 87.5261 175.585 87.995C175.619 88.4641 175.371 88.883 175.031 88.9305C174.608 88.9894 174.193 89.0492 173.785 89.1097C173.445 89.16 173.14 88.8213 173.103 88.3527C173.066 87.8839 173.312 87.4627 173.652 87.4123C174.063 87.3514 174.481 87.2915 174.906 87.2322ZM212.975 86.6836C213.386 86.729 213.799 86.7769 214.212 86.8261C214.553 86.8668 214.806 87.2802 214.776 87.7499C214.747 88.2195 214.447 88.5674 214.106 88.5269C213.695 88.478 213.285 88.4312 212.877 88.386C212.535 88.3483 212.281 87.9364 212.308 87.4664C212.336 86.9966 212.634 86.6461 212.975 86.6836ZM180.509 86.5577C180.851 86.5231 181.148 86.8763 181.173 87.3464C181.198 87.8165 180.942 88.2262 180.601 88.261C180.179 88.3037 179.762 88.3476 179.351 88.3927C179.01 88.4299 178.712 88.0789 178.685 87.609C178.658 87.1392 178.912 86.7277 179.253 86.6902C179.667 86.6449 180.086 86.6007 180.509 86.5577ZM207.353 86.1692C207.769 86.1994 208.186 86.2311 208.605 86.2651C208.947 86.2927 209.207 86.6973 209.187 87.168C209.167 87.6384 208.874 87.9976 208.533 87.97C208.116 87.9362 207.701 87.9042 207.288 87.8741C206.946 87.8493 206.683 87.4471 206.701 86.9762C206.719 86.5055 207.011 86.1443 207.353 86.1692ZM186.124 86.0916C186.465 86.0695 186.756 86.4335 186.772 86.9045C186.788 87.3754 186.524 87.7751 186.182 87.7974C185.762 87.8247 185.345 87.8532 184.932 87.8833C184.59 87.9082 184.298 87.547 184.28 87.0763C184.262 86.6054 184.525 86.2033 184.867 86.1783C185.282 86.1481 185.701 86.119 186.124 86.0916ZM202.985 85.9141C203.327 85.9291 203.595 86.3233 203.584 86.7945C203.574 87.2657 203.288 87.6356 202.946 87.6207C202.531 87.6025 202.119 87.5862 201.708 87.5715C201.366 87.5591 201.096 87.1673 201.105 86.6961C201.114 86.2247 201.399 85.8526 201.741 85.8649C202.154 85.8796 202.568 85.8957 202.985 85.9141ZM191.744 85.8298C192.086 85.8201 192.369 86.1939 192.376 86.6652C192.383 87.1366 192.112 87.5267 191.77 87.5365C191.35 87.5485 190.932 87.5621 190.518 87.5773C190.176 87.5898 189.891 87.2181 189.882 86.7469C189.873 86.2756 190.143 85.8833 190.485 85.8707C190.902 85.8554 191.321 85.8419 191.744 85.8298ZM197.36 85.7698C197.702 85.7725 197.977 86.1571 197.976 86.6286C197.974 87.0998 197.695 87.4797 197.353 87.4773C196.937 87.4742 196.524 87.4729 196.113 87.4731C195.771 87.4733 195.493 87.0909 195.493 86.6194C195.493 86.1481 195.77 85.7659 196.112 85.7657C196.525 85.7654 196.941 85.7667 197.36 85.7698Z" fill="#16B9B3"/>
<circle cx="359.151" cy="264.376" r="1.13012" fill="#E8EFEE"/>
</svg>
