<svg width="83" height="134" viewBox="0 0 83 134" fill="none" xmlns="http://www.w3.org/2000/svg">
<path d="M80.8993 10.1986C80.6941 9.67482 80.2422 9.29083 79.6969 9.17674C79.151 9.06243 78.5861 9.23384 78.1924 9.63221L69.6618 18.2629L65.0754 17.2652L64.0894 12.6251L72.62 3.99429C73.0138 3.59592 73.1829 3.02382 73.0702 2.47219C72.9574 1.92045 72.5778 1.46332 72.0602 1.2555C66.2035 -1.09421 59.541 0.299082 55.0868 4.8053C52.9426 6.97465 51.4702 9.69938 50.8288 12.6848C50.2801 15.239 50.3572 17.8781 51.0466 20.3804L28.2808 43.4133C26.8182 44.8928 26.0129 46.8599 26.0129 48.9524C26.0129 51.0448 26.8182 53.012 28.2807 54.4915C29.7431 55.9711 31.6874 56.7859 33.7556 56.7859C35.8236 56.7859 37.7681 55.9711 39.2304 54.4915L61.9962 31.4586C64.4696 32.156 67.078 32.2339 69.6025 31.6789C72.5534 31.03 75.2466 29.5403 77.3907 27.3709C81.8448 22.8647 83.2219 16.124 80.8993 10.1986Z" fill="#E4EAE9"/>
<path fill-rule="evenodd" clip-rule="evenodd" d="M51.9106 106.388L44.0888 131.106C43.62 132.587 42.0462 133.399 40.5753 132.918L18.0204 125.531C16.5495 125.05 15.737 123.456 16.2058 121.975L24.0276 97.257C24.4963 95.7756 26.0702 94.9635 27.541 95.4452L50.096 102.831C51.5668 103.313 52.3794 104.907 51.9106 106.388Z" fill="#F9E41C"/>
<path fill-rule="evenodd" clip-rule="evenodd" d="M30.665 68.0039C31.1224 68.1009 31.4754 68.4675 31.5598 68.9318C31.6442 69.3961 31.4428 69.8679 31.0506 70.1262C26.5124 73.1156 16.6911 79.5848 13.5726 81.639C13.3151 81.8086 13.002 81.8687 12.7021 81.8052C12.4022 81.7417 12.1399 81.5597 11.9733 81.3002C9.95276 78.154 3.58504 68.2387 0.641602 63.6555C0.387337 63.2596 0.39497 62.7469 0.660701 62.3565C0.927082 61.9658 1.39851 61.7746 1.85596 61.8716C8.27475 63.2385 24.2519 66.6387 30.665 68.0039Z" fill="#16B9B3"/>
</svg>
