<svg width="83" height="97" viewBox="0 0 83 97" fill="none" xmlns="http://www.w3.org/2000/svg">
<path fill-rule="evenodd" clip-rule="evenodd" d="M21.0554 76.5459C-1.18049 72.686 -18 54.9484 -18 33.6777C-18 9.58766 3.57408 -9.97028 30.1537 -9.97028C56.7333 -9.97028 73.0591 1.63003 79.6492 19.771C82.5574 27.779 83.3546 40.4515 79.9633 50.5031C72.5562 72.4599 55.6226 87.4877 20.2186 96.6024C19.7546 96.7223 19.2601 96.6086 18.9102 96.3045C16.9323 94.5649 10.2228 88.6778 7.98625 86.7093C7.81129 86.5555 7.71995 86.337 7.75038 86.1177C7.78081 85.8984 7.91773 85.7033 8.12313 85.5902C10.702 84.187 18.2179 79.9286 21.0554 76.5459Z" fill="#EAFBFF"/>
</svg>
