<svg width="429" height="208" viewBox="0 0 429 208" fill="none" xmlns="http://www.w3.org/2000/svg">
<path d="M384.912 153.089C385.261 152.97 385.641 153.156 385.76 153.507C385.832 153.718 385.9 153.921 385.965 154.116C386.082 154.467 385.894 154.848 385.544 154.965C385.194 155.083 384.815 154.893 384.698 154.542C384.634 154.35 384.566 154.149 384.496 153.941C384.376 153.591 384.563 153.209 384.912 153.089ZM382.784 147.475C383.127 147.337 383.516 147.503 383.654 147.847C383.827 148.278 383.992 148.697 384.15 149.102C384.285 149.448 384.114 149.837 383.77 149.972C383.427 150.107 383.039 149.936 382.905 149.591C382.749 149.189 382.585 148.775 382.414 148.348C382.277 148.004 382.442 147.614 382.784 147.475ZM380.415 142C380.751 141.847 381.147 141.997 381.3 142.334C381.484 142.741 381.662 143.141 381.836 143.535C381.986 143.874 381.833 144.27 381.496 144.42C381.159 144.57 380.764 144.417 380.614 144.079C380.442 143.689 380.265 143.292 380.082 142.889C379.93 142.552 380.079 142.154 380.415 142ZM377.815 136.61C378.145 136.443 378.547 136.576 378.712 136.907C378.914 137.309 379.111 137.707 379.304 138.1C379.467 138.432 379.33 138.835 378.999 138.999C378.668 139.162 378.267 139.025 378.104 138.692C377.913 138.303 377.718 137.908 377.519 137.51C377.353 137.179 377.486 136.776 377.815 136.61ZM375.015 131.326C375.338 131.147 375.745 131.265 375.923 131.589C376.138 131.981 376.349 132.37 376.557 132.756C376.732 133.082 376.611 133.49 376.287 133.666C375.962 133.842 375.556 133.721 375.381 133.395C375.175 133.012 374.965 132.626 374.752 132.237C374.574 131.913 374.692 131.504 375.015 131.326ZM372.023 126.146C372.34 125.955 372.751 126.059 372.94 126.377C373.167 126.757 373.39 127.135 373.61 127.511C373.797 127.831 373.691 128.241 373.373 128.429C373.055 128.617 372.645 128.511 372.458 128.191C372.24 127.819 372.018 127.444 371.794 127.067C371.604 126.749 371.707 126.336 372.023 126.146ZM368.843 121.064C369.153 120.863 369.567 120.952 369.767 121.263C370.013 121.643 370.255 122.022 370.494 122.399C370.692 122.712 370.6 123.126 370.289 123.326C369.978 123.525 369.565 123.432 369.366 123.12C369.129 122.746 368.889 122.37 368.645 121.993C368.445 121.682 368.533 121.266 368.843 121.064ZM365.505 116.123C365.808 115.911 366.225 115.986 366.436 116.29C366.69 116.655 366.942 117.02 367.191 117.384C367.399 117.689 367.322 118.107 367.018 118.317C366.713 118.527 366.297 118.449 366.088 118.144C365.842 117.783 365.593 117.421 365.34 117.058C365.129 116.754 365.203 116.335 365.505 116.123ZM361.983 111.276C362.278 111.053 362.697 111.114 362.919 111.41C363.189 111.771 363.456 112.132 363.72 112.491C363.939 112.789 363.876 113.209 363.579 113.429C363.283 113.65 362.864 113.586 362.645 113.288C362.383 112.931 362.118 112.574 361.85 112.216C361.628 111.919 361.688 111.498 361.983 111.276ZM358.316 106.574C358.604 106.341 359.025 106.387 359.256 106.676C359.533 107.022 359.808 107.368 360.081 107.713C360.31 108.003 360.261 108.425 359.972 108.655C359.682 108.886 359.262 108.837 359.032 108.547C358.762 108.204 358.49 107.861 358.215 107.518C357.983 107.229 358.029 106.806 358.316 106.574ZM354.482 101.984C354.762 101.742 355.184 101.774 355.425 102.055C355.716 102.395 356.005 102.734 356.292 103.073C356.531 103.356 356.496 103.779 356.215 104.019C355.933 104.259 355.512 104.224 355.273 103.942C354.989 103.605 354.702 103.268 354.412 102.93C354.171 102.649 354.202 102.226 354.482 101.984ZM350.496 97.5244C350.767 97.2733 351.19 97.2905 351.44 97.5631C351.743 97.8932 352.044 98.2235 352.342 98.5534C352.59 98.8278 352.569 99.2521 352.296 99.5011C352.023 99.7503 351.6 99.7297 351.352 99.4553C351.056 99.1279 350.758 98.8005 350.457 98.4728C350.207 98.2002 350.224 97.7756 350.496 97.5244ZM346.375 93.2117C346.638 92.9518 347.062 92.9549 347.321 93.219C347.63 93.5346 347.937 93.8504 348.242 94.166C348.499 94.4321 348.493 94.857 348.228 95.1151C347.963 95.3731 347.54 95.3667 347.283 95.1007C346.98 94.7874 346.675 94.474 346.368 94.1608C346.109 93.8967 346.113 93.4718 346.375 93.2117ZM342.11 89.0321C342.365 88.7636 342.788 88.7531 343.055 89.0086C343.377 89.3156 343.696 89.6228 344.013 89.9301C344.278 90.1875 344.286 90.6124 344.03 90.8791C343.774 91.1458 343.35 91.1529 343.085 90.8955C342.77 90.5905 342.453 90.2859 342.134 89.9812C341.867 89.7257 341.856 89.3007 342.11 89.0321ZM337.708 84.9922C337.954 84.7155 338.376 84.6907 338.652 84.9371C338.985 85.2347 339.315 85.533 339.643 85.8311C339.917 86.0797 339.939 86.5039 339.691 86.7788C339.444 87.0538 339.021 87.0752 338.747 86.8267C338.421 86.5308 338.093 86.2353 337.763 85.9399C337.488 85.6934 337.463 85.2689 337.708 84.9922ZM333.176 81.0957C333.413 80.8111 333.835 80.773 334.118 81.0105C334.461 81.2981 334.802 81.586 335.141 81.8743C335.423 82.1139 335.457 82.5373 335.219 82.8201C334.981 83.1029 334.559 83.1383 334.277 82.8987C333.941 82.6125 333.602 82.3264 333.261 82.0408C332.978 81.8033 332.94 81.3802 333.176 81.0957ZM328.522 77.3467C328.749 77.0549 329.169 77.0034 329.459 77.2314C329.812 77.5085 330.164 77.7864 330.513 78.0644C330.802 78.2948 330.851 78.7172 330.621 79.0075C330.392 79.2979 329.971 79.3466 329.682 79.1163C329.335 78.8403 328.987 78.5644 328.636 78.2892C328.346 78.0609 328.294 77.6387 328.522 77.3467ZM323.756 73.7524C323.974 73.4534 324.392 73.3886 324.69 73.6076C325.05 73.8726 325.409 74.1385 325.765 74.4045C326.062 74.6256 326.124 75.0456 325.904 75.3431C325.684 75.6406 325.265 75.7024 324.969 75.4814C324.614 75.2172 324.258 74.9536 323.9 74.6903C323.602 74.4713 323.538 74.0515 323.756 73.7524ZM318.882 70.3108C319.091 70.0051 319.507 69.927 319.811 70.1365C320.178 70.389 320.543 70.6424 320.906 70.8961C321.209 71.1077 321.284 71.5258 321.073 71.8301C320.863 72.1344 320.446 72.2095 320.143 71.9978C319.783 71.7459 319.42 71.4949 319.055 71.2441C318.751 71.0346 318.673 70.6165 318.882 70.3108ZM313.904 67.0213C314.103 66.7092 314.517 66.618 314.828 66.8181C315.201 67.0586 315.573 67.2999 315.943 67.5417C316.252 67.7439 316.339 68.1598 316.138 68.4704C315.937 68.781 315.523 68.8692 315.213 68.667C314.846 68.4269 314.477 68.1869 314.106 67.948C313.795 67.7479 313.705 67.3332 313.904 67.0213ZM308.828 63.8844C309.018 63.5665 309.428 63.4632 309.744 63.6537C310.125 63.8827 310.503 64.1123 310.88 64.3426C311.196 64.5353 311.295 64.9481 311.104 65.2647C310.912 65.5812 310.501 65.6815 310.185 65.4889C309.811 65.2602 309.435 65.032 309.057 64.8046C308.741 64.614 308.638 64.2023 308.828 63.8844ZM303.641 60.8911C303.82 60.5675 304.227 60.4516 304.55 60.6322C304.747 60.7429 304.944 60.8542 305.142 60.9659C305.337 61.0764 305.531 61.1873 305.726 61.2982C306.047 61.4813 306.159 61.8909 305.977 62.2131C305.795 62.5354 305.386 62.6479 305.065 62.4648C304.872 62.3547 304.679 62.2449 304.485 62.1351C304.29 62.0244 304.094 61.9138 303.898 61.8041C303.576 61.6234 303.461 61.2148 303.641 60.8911ZM298.289 58.0532C298.457 57.7229 298.859 57.5914 299.188 57.7596C299.59 57.9651 299.992 58.1726 300.393 58.3822C300.72 58.5532 300.848 58.9585 300.677 59.2873C300.507 59.6162 300.104 59.7441 299.776 59.5731C299.378 59.3653 298.98 59.1595 298.582 58.9557C298.253 58.7875 298.122 58.3834 298.289 58.0532ZM292.837 55.4204C292.992 55.084 293.39 54.9375 293.725 55.0933C294.133 55.2832 294.541 55.475 294.949 55.6688C295.283 55.8274 295.425 56.2272 295.267 56.5621C295.109 56.8971 294.711 57.0403 294.377 56.8819C293.973 56.6897 293.568 56.4994 293.163 56.3111C292.828 56.1553 292.682 55.7566 292.837 55.4204ZM287.294 52.992C287.437 52.6502 287.829 52.4895 288.169 52.6329C288.583 52.8072 288.997 52.983 289.411 53.1611C289.75 53.3072 289.907 53.702 289.761 54.0427C289.616 54.3832 289.223 54.5411 288.884 54.3953C288.474 54.2185 288.063 54.0432 287.653 53.8703C287.312 53.727 287.152 53.3338 287.294 52.992ZM281.671 50.7676C281.801 50.4209 282.187 50.246 282.532 50.3769C282.95 50.5358 283.369 50.6966 283.788 50.8593C284.132 50.9931 284.303 51.3821 284.17 51.7277C284.037 52.0732 283.65 52.2448 283.306 52.1112C282.89 51.9497 282.475 51.7904 282.059 51.6327C281.714 51.5016 281.541 51.1142 281.671 50.7676ZM275.965 48.7404C276.084 48.3895 276.463 48.2015 276.813 48.3202C277.239 48.4651 277.665 48.612 278.091 48.7607C278.44 48.8822 278.625 49.2645 278.504 49.6147C278.383 49.9648 278.001 50.1498 277.653 50.0282C277.23 49.8808 276.807 49.7354 276.384 49.5917C276.035 49.4729 275.847 49.0914 275.965 48.7404ZM270.195 46.9117C270.301 46.557 270.674 46.3561 271.027 46.4628C271.458 46.5931 271.889 46.7253 272.32 46.8593C272.673 46.9688 272.871 47.3448 272.762 47.6989C272.652 48.0529 272.278 48.2508 271.926 48.1413C271.497 48.0083 271.069 47.8774 270.642 47.748C270.288 47.6412 270.088 47.2667 270.195 46.9117ZM264.37 45.2784C264.465 44.9202 264.831 44.7068 265.188 44.8019C265.621 44.9175 266.054 45.0348 266.488 45.1539C266.844 45.2516 267.054 45.6209 266.957 45.9784C266.86 46.3359 266.492 46.5467 266.136 46.449C265.705 46.3308 265.274 46.2144 264.844 46.0997C264.488 46.0045 264.275 45.6366 264.37 45.2784ZM258.499 43.8365C258.582 43.4754 258.941 43.2503 259.301 43.3338C259.736 43.4351 260.173 43.5384 260.609 43.6432C260.968 43.7293 261.19 44.0914 261.104 44.452C261.018 44.8122 260.658 45.0346 260.299 44.9488C259.866 44.8447 259.432 44.742 258.999 44.6414C258.64 44.5577 258.416 44.1976 258.499 43.8365ZM252.574 42.5788C252.646 42.2153 252.998 41.979 253.36 42.0512C253.802 42.1394 254.245 42.2295 254.688 42.3212C255.049 42.396 255.282 42.7506 255.208 43.1136C255.133 43.4766 254.78 43.7107 254.418 43.636C253.978 43.5449 253.539 43.4555 253.1 43.3679C252.738 43.2956 252.503 42.9422 252.574 42.5788ZM246.622 41.5045C246.683 41.1391 247.028 40.8928 247.392 40.954C247.833 41.0283 248.276 41.1044 248.719 41.1821C249.083 41.2457 249.326 41.593 249.263 41.9581C249.199 42.3232 248.853 42.5677 248.49 42.5041C248.049 42.4269 247.61 42.3517 247.171 42.2779C246.807 42.2167 246.561 41.8701 246.622 41.5045ZM241.396 40.0364C241.839 40.0976 242.284 40.1601 242.729 40.2245C243.095 40.2774 243.348 40.6179 243.296 40.9848C243.243 41.3516 242.904 41.6059 242.539 41.553C242.096 41.489 241.654 41.4264 241.214 41.3656C240.848 41.3151 240.593 40.977 240.643 40.6099C240.693 40.2427 241.03 39.9859 241.396 40.0364ZM182.229 39.8555C182.595 39.8075 182.93 40.0662 182.978 40.4336C183.026 40.801 182.769 41.1384 182.403 41.1867C182.185 41.2153 181.97 41.2439 181.758 41.2725C181.392 41.3219 181.055 41.0638 181.006 40.6964C180.957 40.3293 181.213 39.9916 181.579 39.942C181.793 39.9132 182.01 39.8844 182.229 39.8555ZM235.367 39.2925C235.813 39.3411 236.261 39.3915 236.71 39.4433C237.077 39.4857 237.34 39.8184 237.298 40.1865C237.256 40.5546 236.924 40.8186 236.558 40.7764C236.112 40.725 235.667 40.6752 235.223 40.6269C234.856 40.587 234.591 40.256 234.63 39.8876C234.67 39.5192 235 39.2527 235.367 39.2925ZM188.268 39.1529C188.635 39.1156 188.963 39.384 189 39.7526C189.038 40.1214 188.77 40.4507 188.403 40.488C187.947 40.5343 187.499 40.5814 187.059 40.6289C186.692 40.6685 186.363 40.4022 186.323 40.0338C186.284 39.6653 186.549 39.3342 186.916 39.2945C187.358 39.2466 187.809 39.1995 188.268 39.1529ZM229.336 38.7216C229.779 38.7574 230.225 38.795 230.671 38.8337C231.039 38.8657 231.311 39.1907 231.279 39.5599C231.247 39.9291 230.924 40.2025 230.556 40.1708C230.113 40.1323 229.67 40.0955 229.23 40.06C228.862 40.0304 228.587 39.7066 228.617 39.3371C228.646 38.9677 228.968 38.6921 229.336 38.7216ZM194.313 38.6227C194.681 38.5955 195.002 38.8731 195.029 39.2427C195.056 39.6123 194.779 39.9343 194.411 39.9617C193.957 39.9953 193.507 40.0298 193.064 40.0652C192.696 40.0945 192.374 39.8185 192.345 39.4492C192.315 39.0798 192.59 38.7563 192.958 38.7269C193.404 38.6912 193.856 38.6565 194.313 38.6227ZM223.271 38.3172C223.72 38.341 224.17 38.3659 224.622 38.3926C224.991 38.4144 225.272 38.7324 225.25 39.1024C225.228 39.4723 224.912 39.7546 224.544 39.7329C224.094 39.7064 223.646 39.6812 223.201 39.6576C222.832 39.638 222.549 39.3218 222.568 38.9517C222.588 38.5816 222.903 38.2977 223.271 38.3172ZM200.37 38.2563C200.738 38.2389 201.051 38.5251 201.069 38.8953C201.086 39.2655 200.801 39.5797 200.433 39.5973C199.979 39.6187 199.529 39.6411 199.084 39.6648C198.715 39.6844 198.401 39.4004 198.381 39.0303C198.361 38.6602 198.645 38.344 199.013 38.3245C199.461 38.3007 199.913 38.2778 200.37 38.2563ZM218.559 38.1167C218.928 38.1285 219.217 38.4384 219.206 38.8088C219.194 39.1793 218.885 39.4701 218.516 39.4583C218.07 39.444 217.624 39.4312 217.182 39.4197C216.813 39.4099 216.522 39.1019 216.531 38.7315C216.541 38.3609 216.848 38.0684 217.217 38.078C217.662 38.0896 218.109 38.1023 218.559 38.1167ZM206.433 38.0505C206.802 38.0428 207.107 38.3367 207.115 38.7072C207.122 39.0778 206.83 39.3844 206.461 39.3921C206.007 39.4016 205.557 39.4123 205.11 39.4242C204.741 39.434 204.434 39.1419 204.424 38.7714C204.414 38.4009 204.706 38.0925 205.074 38.0826C205.524 38.0706 205.977 38.06 206.433 38.0505ZM212.491 38.0033C212.86 38.0054 213.157 38.3078 213.155 38.6784C213.153 39.0489 212.852 39.3475 212.483 39.3456C212.035 39.3432 211.589 39.3421 211.145 39.3423C210.776 39.3425 210.477 39.0418 210.476 38.6712C210.476 38.3006 210.776 38.0002 211.145 38C211.591 37.9998 212.039 38.0008 212.491 38.0033Z" fill="#16B9B3"/>
<path d="M385.87 177.247C373.015 177.247 350.923 185.245 343.043 205.574C342.594 206.731 343.428 207.98 344.669 207.98H427.071C428.312 207.98 429.146 206.731 428.697 205.574C420.817 185.245 398.725 177.247 385.87 177.247Z" fill="#16B9B3"/>
<path d="M309.168 168C301.431 168 288.133 172.814 283.39 185.051C283.12 185.747 283.622 186.499 284.369 186.499H333.968C334.715 186.499 335.217 185.747 334.947 185.051C330.204 172.814 316.906 168 309.168 168Z" fill="#F9E41C"/>
<path d="M80.5001 0C56.4058 0 14.9997 15.0942 0.230091 53.4583C-0.610422 55.6417 0.952803 58 3.27865 58H157.722C160.047 58 161.611 55.6417 160.77 53.4583C146 15.0942 104.594 0 80.5001 0Z" fill="#DBF9FF"/>
</svg>
