<svg width="87" height="75" viewBox="0 0 87 75" fill="none" xmlns="http://www.w3.org/2000/svg">
<path d="M25.2656 1.84386C28.1134 -0.770476 32.5417 -0.581764 35.1562 2.26573L63.1562 32.7657C65.6141 35.4431 65.6141 39.5571 63.1562 42.2345L35.1562 72.7345C32.5417 75.5819 28.1134 75.7706 25.2656 73.1564C22.4182 70.5419 22.2295 66.1135 24.8438 63.2657L42.0713 44.5001H7C3.13404 44.5001 5.77263e-05 41.3661 0 37.5001C0 33.6341 3.13401 30.5001 7 30.5001H42.0713L24.8438 11.7345C22.2294 8.88675 22.4182 4.45837 25.2656 1.84386ZM53.0156 1.84386C55.8634 -0.770476 60.2917 -0.581764 62.9062 2.26573L90.9062 32.7657C93.3641 35.4431 93.3641 39.5571 90.9062 42.2345L62.9062 72.7345C60.2917 75.5819 55.8634 75.7706 53.0156 73.1564C50.1682 70.5419 49.9795 66.1135 52.5938 63.2657L76.2471 37.5001L52.5938 11.7345C49.9794 8.88675 50.1682 4.45837 53.0156 1.84386Z" fill="#F0F6F5"/>
</svg>
