<svg width="107" height="91" viewBox="0 0 107 91" fill="none" xmlns="http://www.w3.org/2000/svg">
<path fill-rule="evenodd" clip-rule="evenodd" d="M53.4835 50.4511L41.9167 86.142C41.2235 88.2811 38.9543 89.4813 36.8509 88.8197L4.59619 78.6747C2.49283 78.0131 1.3494 75.7396 2.04263 73.6005L13.6094 37.9096C14.3027 35.7706 16.5719 34.5704 18.6752 35.2319L50.9299 45.3769C53.0333 46.0385 54.1767 48.3121 53.4835 50.4511Z" fill="#FF6E0B"/>
<path fill-rule="evenodd" clip-rule="evenodd" d="M104.065 24.1561C104.978 24.3594 105.685 25.0941 105.86 26.0156C106.034 26.9371 105.639 27.8663 104.861 28.3681C95.8584 34.1749 76.377 46.7413 70.1911 50.7315C69.6802 51.061 69.0573 51.1723 68.459 51.0391C67.8607 50.9059 67.336 50.5389 67.0007 50.0209C62.935 43.7409 50.1221 23.9494 44.1994 14.8009C43.6877 14.0106 43.6963 12.9956 44.2207 12.2292C44.7463 11.462 45.6829 11.0953 46.5955 11.2986C59.4 14.1646 91.272 21.2938 104.065 24.1561Z" fill="#16B9B3"/>
</svg>
