<svg width="93" height="75" viewBox="0 0 93 75" fill="none" xmlns="http://www.w3.org/2000/svg">
<path d="M25.2656 1.84364C28.1134 -0.770689 32.5417 -0.581976 35.1562 2.26552L63.1562 32.7655C65.6141 35.4429 65.6141 39.5569 63.1562 42.2343L35.1562 72.7343C32.5417 75.5817 28.1134 75.7704 25.2656 73.1561C22.4182 70.5417 22.2295 66.1133 24.8438 63.2655L42.0713 44.4999H7C3.13404 44.4999 5.77263e-05 41.3658 0 37.4999C0 33.6339 3.13401 30.4999 7 30.4999H42.0713L24.8438 11.7343C22.2294 8.88653 22.4182 4.45816 25.2656 1.84364ZM53.0156 1.84364C55.8634 -0.770689 60.2917 -0.581976 62.9062 2.26552L90.9062 32.7655C93.3641 35.4429 93.3641 39.5569 90.9062 42.2343L62.9062 72.7343C60.2917 75.5817 55.8634 75.7704 53.0156 73.1561C50.1682 70.5417 49.9795 66.1133 52.5938 63.2655L76.2471 37.4999L52.5938 11.7343C49.9794 8.88653 50.1682 4.45816 53.0156 1.84364Z" fill="#F0F6F5"/>
</svg>
