<svg width="81" height="73" viewBox="0 0 81 73" fill="none" xmlns="http://www.w3.org/2000/svg">
<g opacity="0.4">
<path fill-rule="evenodd" clip-rule="evenodd" d="M29.9442 71.026C29.2711 71.9476 27.9883 72.1513 27.0739 71.4817C22.9971 68.5108 12.5319 60.8938 8.45512 57.9242C7.528 57.2547 7.32481 55.9652 7.99793 55.0437C10.8428 51.1079 17.7644 41.5727 17.7644 41.5727C17.7644 41.5727 6.57549 37.931 1.96526 36.4277C0.885735 36.0751 0.288773 34.9117 0.644379 33.8285C2.19382 29.022 6.1944 16.698 7.75655 11.8916C8.09946 10.8083 9.26794 10.2152 10.3475 10.5677C14.9577 12.071 26.1468 15.7128 26.1468 15.7128V-0.937874C26.1468 -2.07711 27.0612 -2.99995 28.2042 -2.99995C33.2463 -2.99995 46.1752 -2.99995 51.2173 -2.99995C52.3476 -2.99995 53.2747 -2.07711 53.2747 -0.937874C53.2747 3.92709 53.2747 15.7128 53.2747 15.7128C53.2747 15.7128 64.4637 12.071 69.0739 10.5677C70.1534 10.2152 71.3219 10.8083 71.6648 11.8916C73.2269 16.698 77.2148 29.022 78.777 33.8285C79.1326 34.9117 78.5356 36.0751 77.4561 36.4277C72.8459 37.931 61.6569 41.5727 61.6569 41.5727C61.6569 41.5727 68.5658 51.1079 71.4234 55.0437C72.0965 55.9652 71.8933 57.2547 70.9662 57.9242C66.8894 60.8938 56.4244 68.5108 52.3476 71.4817C51.4332 72.1513 50.1377 71.9476 49.4773 71.026C46.6197 67.0903 39.7107 57.5551 39.7107 57.5551C39.7107 57.5551 32.8018 67.0903 29.9442 71.026Z" fill="#F9E41C"/>
</g>
</svg>
