<svg width="56" height="76" viewBox="0 0 56 76" fill="none" xmlns="http://www.w3.org/2000/svg">
<path d="M35.8621 14.5485L27.6081 10.1479L7.62833 48.5631L15.8823 52.9637L35.8621 14.5485Z" fill="#FFA10B"/>
<path d="M43.4569 18.5861L35.2029 14.1855L15.2232 52.6007L23.4772 57.0013L43.4569 18.5861Z" fill="#FF6E0B"/>
<path d="M51.5558 22.8918L43.3018 18.4912L23.3221 56.9064L31.576 61.3069L51.5558 22.8918Z" fill="#FFA10B"/>
<path fill-rule="evenodd" clip-rule="evenodd" d="M11.9969 69.4929L31.4835 61.4267L7.52735 48.6279L11.9969 69.4929Z" fill="#827575"/>
<path fill-rule="evenodd" clip-rule="evenodd" d="M46.7733 7.40114C49.4457 8.82808 51.4597 11.2561 52.3715 14.1491C53.2826 17.0436 53.018 20.1666 51.6346 22.8305L27.7045 10.053C29.0879 7.38905 31.4777 5.40074 34.3468 4.52475C37.2152 3.65024 40.3291 3.9602 43.0015 5.38714C44.2488 6.05317 45.5248 6.73447 46.7733 7.40114Z" fill="#F9E41C"/>
</svg>
