<svg width="44" height="39" viewBox="0 0 44 39" fill="none" xmlns="http://www.w3.org/2000/svg">
<path fill-rule="evenodd" clip-rule="evenodd" d="M16.3945 37.8779C16.0191 38.3426 15.3039 38.4453 14.794 38.1077C12.5209 36.6096 6.68565 32.7687 4.41248 31.2712C3.89553 30.9336 3.78224 30.2834 4.15756 29.8187C5.74382 27.834 9.60321 23.0259 9.60321 23.0259C9.60321 23.0259 3.36443 21.1895 0.793835 20.4314C0.191906 20.2537 -0.140953 19.667 0.0573273 19.1208C0.921276 16.6971 3.15194 10.4826 4.02296 8.05892C4.21417 7.51269 4.8657 7.21358 5.46762 7.39137C8.03822 8.14941 14.2771 9.98579 14.2771 9.98579V1.58958C14.2771 1.01512 14.787 0.54977 15.4243 0.54977C18.2357 0.54977 25.4446 0.54977 28.256 0.54977C28.8863 0.54977 29.4032 1.01512 29.4032 1.58958C29.4032 4.04278 29.4032 9.98579 29.4032 9.98579C29.4032 9.98579 35.642 8.14941 38.2126 7.39137C38.8145 7.21358 39.466 7.51269 39.6572 8.05892C40.5283 10.4826 42.7519 16.6971 43.6229 19.1208C43.8212 19.667 43.4883 20.2537 42.8864 20.4314C40.3158 21.1895 34.077 23.0259 34.077 23.0259C34.077 23.0259 37.9293 27.834 39.5227 29.8187C39.898 30.2834 39.7847 30.9336 39.2677 31.2712C36.9946 32.7687 31.1594 36.6096 28.8863 38.1077C28.3764 38.4453 27.6541 38.3426 27.2858 37.8779C25.6925 35.8933 21.8401 31.0851 21.8401 31.0851C21.8401 31.0851 17.9878 35.8933 16.3945 37.8779Z" fill="#FFC972"/>
</svg>
