<svg width="40" height="40" viewBox="0 0 40 40" fill="none" xmlns="http://www.w3.org/2000/svg">
<path d="M18.4448 25.651C24.1699 27.0193 29.9128 23.4828 31.2718 17.752C32.6309 12.0213 29.0914 6.26637 23.3663 4.89809C17.6411 3.52981 11.8983 7.06631 10.5393 12.7971C9.18023 18.5278 12.7197 24.2827 18.4448 25.651Z" fill="#F9E41C"/>
<path fill-rule="evenodd" clip-rule="evenodd" d="M25.1789 23.5726L13.7078 20.8312L14.4119 30.639L20.148 32.0098L25.1789 23.5726Z" fill="#F9E41C"/>
<path fill-rule="evenodd" clip-rule="evenodd" d="M21.0894 33.8351C20.7328 35.3389 19.2235 36.2687 17.7207 35.9095L14.928 35.2421C13.4252 34.883 12.4952 33.3702 12.8518 31.8665C13.2084 30.3628 14.7177 29.433 16.2205 29.7921L19.0132 30.4595C20.516 30.8186 21.4461 32.3314 21.0894 33.8351Z" fill="#E5E5E5"/>
<path d="M22.4506 28.0839L14.2129 26.1152L12.7787 32.1627L21.0164 34.1314L22.4506 28.0839Z" fill="#827575"/>
<path fill-rule="evenodd" clip-rule="evenodd" d="M20.5907 14.3514C20.6496 14.3115 20.7105 14.2745 20.7736 14.2396C21.3046 13.9483 22.0084 13.8277 22.9121 14.0334C24.232 14.3338 25.0774 14.9968 25.5317 15.8464C25.9834 16.6899 26.049 17.7298 25.7682 18.8179C25.2369 20.8807 23.4477 23.1317 20.8654 24.4147C20.6791 24.5066 20.4532 24.4304 20.361 24.2442C20.2688 24.0579 20.3444 23.8324 20.5302 23.7395C22.8963 22.5651 24.5533 20.519 25.0403 18.6289C25.2691 17.7402 25.2376 16.8893 24.8693 16.2014C24.5039 15.5183 23.8078 15.0091 22.7467 14.7675C22.1252 14.6261 21.6291 14.6717 21.2441 14.8463C22.0274 15.5429 22.4684 16.4036 22.3333 17.1425C22.238 17.6656 21.8714 18.1627 21.0852 18.5127C20.7714 18.6519 20.4908 18.6428 20.2503 18.5409C19.932 18.4061 19.6698 18.0824 19.5297 17.6332C19.288 16.8566 19.4095 15.6987 20.0286 14.8866C19.4879 14.5622 18.8695 14.3312 18.2669 14.2649C17.7182 14.2052 17.1823 14.2834 16.7449 14.5803C16.2679 14.9034 15.9196 15.4811 15.771 16.3731C15.3774 18.7346 16.7529 21.1706 17.6569 22.8751C17.7536 23.0593 17.6842 23.2871 17.5007 23.3844C17.3178 23.4819 17.0898 23.4116 16.9923 23.228C16.0247 21.4028 14.6078 18.7776 15.029 16.2489C15.2203 15.0982 15.707 14.3735 16.3226 13.9565C16.9057 13.5611 17.6164 13.4366 18.3474 13.5169C19.1203 13.6008 19.9168 13.915 20.5907 14.3514ZM20.64 15.3192C20.2791 15.7669 20.1412 16.3766 20.1643 16.9018C20.1763 17.1839 20.235 17.4439 20.3425 17.6362C20.4035 17.7452 20.4744 17.8352 20.5752 17.8585C20.6367 17.8724 20.7038 17.8575 20.7784 17.8245C21.2687 17.6061 21.5342 17.3323 21.5935 17.0061C21.6906 16.4756 21.2968 15.8951 20.7312 15.3965C20.7013 15.3703 20.6706 15.3448 20.64 15.3192Z" fill="white"/>
</svg>
