<svg width="36" height="35" viewBox="0 0 36 35" fill="none" xmlns="http://www.w3.org/2000/svg">
<path d="M0 17.3004C0 7.80016 8.11561 0 18 0C27.8844 0 36 7.80016 36 17.3004C36 26.8006 27.8844 34.6007 18 34.6007C8.11561 34.6007 0 26.9006 0 17.3004ZM19.8728 27.5006V18.1004H22.578L22.8902 14.9003H19.8728V13.3003C19.8728 12.5003 19.9769 12.0002 21.2254 12.0002H22.8902V8.70018H20.185C16.9595 8.70018 15.815 10.3002 15.815 12.9003V14.8003H13.8382V18.0004H15.815V27.4006H19.8728V27.5006Z" fill="white" fill-opacity="0.8"/>
<path d="M0 17.3004C0 7.80016 8.11561 0 18 0C27.8844 0 36 7.80016 36 17.3004C36 26.8006 27.8844 34.6007 18 34.6007C8.11561 34.6007 0 26.9006 0 17.3004Z" fill="#16B9B3"/>
<path d="M19.8728 27.5006V18.1004H22.578L22.8901 14.9003H19.8728V13.3003C19.8728 12.5003 19.9768 12.0003 21.2254 12.0003H22.8901V8.7002H20.1849C16.9595 8.7002 15.815 10.3002 15.815 12.9003V14.8003H13.8381V18.0004H15.815V27.4006H19.8728V27.5006Z" fill="white"/>
</svg>
