<svg width="36" height="35" viewBox="0 0 36 35" fill="none" xmlns="http://www.w3.org/2000/svg">
<g clip-path="url(#clip0_195_2914)">
<path d="M0 17.3004C0 7.80016 8.11561 0 18 0C27.8844 0 36 7.80016 36 17.3004C36 26.8006 27.8844 34.6007 18 34.6007C8.11561 34.6007 0 26.9006 0 17.3004ZM18 8.10017C15.3988 8.10017 15.0867 8.10017 14.0462 8.20017C13.0058 8.20017 12.2775 8.40018 11.7572 8.60018C11.1329 8.80018 10.6127 9.20019 10.0925 9.7002C9.57226 10.2002 9.26012 10.7002 8.94798 11.3002C8.73989 11.9002 8.53179 12.6003 8.53179 13.5003C8.53179 14.5003 8.42775 14.8003 8.42775 17.3004C8.42775 19.8004 8.42775 20.1004 8.53179 21.1004C8.53179 22.1005 8.73989 22.8005 8.94798 23.3005C9.15607 24.0005 9.46821 24.5005 9.98844 25.0005C10.5087 25.5005 11.0289 25.8005 11.6532 26.1005C12.2775 26.3005 13.0058 26.5005 13.9422 26.5005C14.9827 26.5005 15.2948 26.6006 17.896 26.6006C20.4971 26.6006 20.8092 26.6006 21.8497 26.5005C22.8902 26.5005 23.6185 26.3005 24.1387 26.1005C24.763 25.9005 25.2832 25.5005 25.8035 25.0005C26.3237 24.5005 26.6358 24.0005 26.948 23.4005C27.1561 22.8005 27.3642 22.1005 27.3642 21.2004C27.3642 20.2004 27.4682 19.9004 27.4682 17.4004C27.4682 14.9003 27.4682 14.6003 27.3642 13.6003C27.3642 12.6003 27.1561 11.9002 26.948 11.4002C26.7399 10.8002 26.3237 10.3002 25.8035 9.8002C25.2832 9.30019 24.763 9.00019 24.1387 8.70018C23.5145 8.50018 22.7861 8.30017 21.8497 8.30017C20.9133 8.10017 20.6012 8.10017 18 8.10017Z" fill="white"/>
<path d="M0 17.3004C0 7.80016 8.11561 0 18 0C27.8844 0 36 7.80016 36 17.3004C36 26.8006 27.8844 34.6007 18 34.6007C8.11561 34.6007 0 26.9006 0 17.3004Z" fill="#16B9B3"/>
<path d="M18 8.1001C15.3988 8.1001 15.0867 8.1001 14.0462 8.2001C13.0058 8.2001 12.2774 8.4001 11.7572 8.60011C11.1329 8.80011 10.6127 9.20012 10.0925 9.70013C9.57224 10.2001 9.2601 10.7002 8.94797 11.3002C8.73987 11.9002 8.53178 12.6002 8.53178 13.5002C8.53178 14.5002 8.42773 14.8002 8.42773 17.3003C8.42773 19.8003 8.42773 20.1003 8.53178 21.1004C8.53178 22.1004 8.73987 22.8004 8.94797 23.3004C9.15606 24.0004 9.4682 24.5004 9.98843 25.0004C10.5087 25.5005 11.0289 25.8005 11.6532 26.1005C12.2774 26.3005 13.0058 26.5005 13.9422 26.5005C14.9826 26.5005 15.2948 26.6005 17.8959 26.6005C20.4971 26.6005 20.8092 26.6005 21.8497 26.5005C22.8902 26.5005 23.6185 26.3005 24.1387 26.1005C24.763 25.9005 25.2832 25.5005 25.8035 25.0004C26.3237 24.5004 26.6358 24.0004 26.948 23.4004C27.1561 22.8004 27.3642 22.1004 27.3642 21.2004C27.3642 20.2003 27.4682 19.9003 27.4682 17.4003C27.4682 14.9002 27.4682 14.6002 27.3642 13.6002C27.3642 12.6002 27.1561 11.9002 26.948 11.4002C26.7399 10.8002 26.3237 10.3001 25.8035 9.80013C25.2832 9.30012 24.763 9.00012 24.1387 8.70011C23.5144 8.50011 22.7861 8.3001 21.8497 8.3001C20.9133 8.1001 20.6011 8.1001 18 8.1001Z" fill="white"/>
<path d="M17.1677 9.7002C17.3758 9.7002 17.6879 9.7002 18 9.7002C20.6012 9.7002 20.9133 9.7002 21.8498 9.8002C22.7862 9.8002 23.3064 10.0002 23.6185 10.1002C24.0347 10.3002 24.3469 10.5002 24.763 10.8002C25.0752 11.1002 25.2833 11.4002 25.4914 11.9002C25.5954 12.2002 25.8035 12.7003 25.8035 13.6003C25.8035 14.6003 25.9076 14.9003 25.9076 17.3004C25.9076 19.7004 25.9076 20.1004 25.8035 21.0004C25.8035 21.9004 25.5954 22.4005 25.4914 22.7005C25.2833 23.1005 25.0752 23.4005 24.763 23.8005C24.4509 24.1005 24.1388 24.3005 23.6185 24.5005C23.3064 24.6005 22.7862 24.8005 21.8498 24.8005C20.8093 24.8005 20.4972 24.9005 18 24.9005C15.3989 24.9005 15.0867 24.9005 14.1503 24.8005C13.2139 24.8005 12.6937 24.6005 12.3815 24.5005C11.9654 24.3005 11.6532 24.1005 11.237 23.8005C10.9249 23.5005 10.7168 23.2005 10.5087 22.7005C10.4047 22.4005 10.1966 22.0005 10.1966 21.1004C10.1966 20.1004 10.0925 19.8004 10.0925 17.4004C10.0925 15.0003 10.0925 14.6003 10.1966 13.7003C10.1966 12.8003 10.4047 12.3002 10.5087 12.0002C10.7168 11.6002 10.9249 11.3002 11.237 10.9002C11.5492 10.6002 11.8613 10.4002 12.3815 10.2002C12.6937 10.1002 13.2139 9.9002 14.1503 9.9002C14.9827 9.8002 15.3989 9.7002 17.1677 9.7002ZM23.2024 11.3002C22.5781 11.3002 22.0578 11.8002 22.0578 12.4003C22.0578 13.0003 22.5781 13.5003 23.2024 13.5003C23.8266 13.5003 24.3469 13.0003 24.3469 12.4003C24.3469 11.8002 23.8266 11.3002 23.2024 11.3002ZM18 12.6003C15.2948 12.6003 13.1099 14.7003 13.1099 17.3004C13.1099 19.9004 15.2948 22.0005 18 22.0005C20.7052 22.0005 22.8902 19.9004 22.8902 17.3004C22.8902 14.7003 20.7052 12.6003 18 12.6003Z" fill="#16B9B3"/>
<path d="M18 14.2002C19.7688 14.2002 21.2254 15.6002 21.2254 17.3003C21.2254 19.0003 19.7688 20.4003 18 20.4003C16.2312 20.4003 14.7745 19.0003 14.7745 17.3003C14.7745 15.6002 16.2312 14.2002 18 14.2002Z" fill="#16B9B3"/>
</g>
<defs>
<clipPath id="clip0_195_2914">
<rect width="36" height="34.6007" fill="white"/>
</clipPath>
</defs>
</svg>
