<svg width="40" height="40" viewBox="0 0 40 40" fill="none" xmlns="http://www.w3.org/2000/svg">
<path d="M18.4448 25.6511C24.1699 27.0193 29.9128 23.4828 31.2718 17.7521C32.6309 12.0213 29.0914 6.26641 23.3663 4.89813C17.6411 3.52986 11.8983 7.06636 10.5393 12.7971C9.18023 18.5279 12.7197 24.2828 18.4448 25.6511Z" fill="#F9E41C"/>
<path fill-rule="evenodd" clip-rule="evenodd" d="M25.1785 23.5727L13.7075 20.8312L14.4115 30.639L20.1476 32.0099L25.1785 23.5727Z" fill="#F9E41C"/>
<path fill-rule="evenodd" clip-rule="evenodd" d="M21.0894 33.8351C20.7328 35.3388 19.2235 36.2687 17.7207 35.9095L14.928 35.2421C13.4252 34.883 12.4952 33.3702 12.8518 31.8665C13.2084 30.3628 14.7177 29.433 16.2205 29.7921L19.0132 30.4595C20.516 30.8186 21.4461 32.3314 21.0894 33.8351Z" fill="#E5E5E5"/>
<path d="M22.4504 28.0839L14.2126 26.1152L12.7785 32.1627L21.0162 34.1314L22.4504 28.0839Z" fill="#827575"/>
<path fill-rule="evenodd" clip-rule="evenodd" d="M20.5909 14.3514C20.6499 14.3115 20.7108 14.2745 20.7739 14.2396C21.3049 13.9484 22.0086 13.8278 22.9124 14.0335C24.2322 14.3338 25.0777 14.9969 25.532 15.8465C25.9837 16.6899 26.0492 17.7299 25.7685 18.8179C25.2372 20.8808 23.448 23.1317 20.8656 24.4147C20.6794 24.5067 20.4534 24.4305 20.3613 24.2442C20.2691 24.0579 20.3446 23.8324 20.5304 23.7396C22.8965 22.5651 24.5535 20.519 25.0405 18.6289C25.2693 17.7402 25.2378 16.8893 24.8695 16.2015C24.5041 15.5183 23.808 15.0092 22.747 14.7675C22.1254 14.6261 21.6293 14.6718 21.2443 14.8463C22.0277 15.5429 22.4686 16.4036 22.3335 17.1425C22.2382 17.6656 21.8716 18.1627 21.0854 18.5128C20.7716 18.652 20.4911 18.6429 20.2505 18.5409C19.9322 18.4061 19.6701 18.0825 19.5299 17.6332C19.2883 16.8567 19.4098 15.6988 20.0288 14.8867C19.4881 14.5623 18.8698 14.3312 18.2672 14.2649C17.7185 14.2052 17.1826 14.2834 16.7452 14.5803C16.2681 14.9035 15.9199 15.4812 15.7712 16.3731C15.3776 18.7347 16.7532 21.1707 17.6571 22.8752C17.7538 23.0593 17.6844 23.2871 17.5009 23.3845C17.318 23.482 17.0901 23.4116 16.9925 23.2281C16.025 21.4029 14.6081 18.7776 15.0293 16.249C15.2206 15.0982 15.7073 14.3735 16.3229 13.9566C16.906 13.5612 17.6167 13.4367 18.3476 13.5169C19.1205 13.6009 19.917 13.915 20.5909 14.3514ZM20.6402 15.3192C20.2793 15.7669 20.1414 16.3766 20.1646 16.9018C20.1766 17.184 20.2352 17.444 20.3427 17.6363C20.4038 17.7453 20.4747 17.8352 20.5754 17.8585C20.637 17.8724 20.704 17.8575 20.7787 17.8246C21.269 17.6061 21.5345 17.3324 21.5938 17.0062C21.6908 16.4756 21.2971 15.8951 20.7315 15.3966C20.7016 15.3704 20.6709 15.3448 20.6402 15.3192Z" fill="white"/>
</svg>
