<svg width="24" height="24" viewBox="0 0 24 24" fill="none" xmlns="http://www.w3.org/2000/svg">
<path d="M11.864 5.36367C12.2155 5.0124 12.7853 5.01227 13.1367 5.36367L19.1367 11.3637C19.1958 11.4228 19.2416 11.49 19.2808 11.5594C19.2985 11.5907 19.3161 11.622 19.3301 11.6555C19.355 11.7156 19.3738 11.7774 19.3851 11.8406C19.3944 11.8924 19.4004 11.9456 19.4004 12C19.4004 12.054 19.3943 12.1068 19.3851 12.1582C19.3739 12.2215 19.3549 12.2832 19.3301 12.3434C19.3162 12.3769 19.2985 12.4081 19.2808 12.4395C19.2416 12.5092 19.196 12.577 19.1367 12.6363L13.1367 18.6363C12.7853 18.9877 12.2155 18.9876 11.864 18.6363C11.5126 18.2849 11.5126 17.7151 11.864 17.3637L16.3277 12.9H5.99998C5.50292 12.9 5.09998 12.4971 5.09998 12C5.09998 11.5029 5.50292 11.1 5.99998 11.1H16.3277L11.864 6.63633C11.5126 6.28486 11.5126 5.71514 11.864 5.36367Z" fill="white"/>
</svg>
