<svg width="142" height="24" viewBox="0 0 142 24" fill="none" xmlns="http://www.w3.org/2000/svg">
<g clip-path="url(#clip0_95_768)">
<path d="M11.5126 17.0278C9.1387 17.0278 5.05817 18.5047 3.60318 22.2592C3.52004 22.4726 3.67429 22.7034 3.90402 22.7034H19.1223C19.3509 22.7034 19.5052 22.4726 19.4231 22.2592C17.9682 18.5047 13.8876 17.0278 11.5137 17.0278H11.5126Z" fill="white"/>
<path d="M30.0337 17.0278C27.6597 17.0278 23.5792 18.5047 22.1242 22.2592C22.0411 22.4726 22.1953 22.7034 22.4251 22.7034H37.6434C37.872 22.7034 38.0263 22.4726 37.9442 22.2592C36.4892 18.5047 32.4087 17.0278 30.0348 17.0278H30.0337Z" fill="white"/>
<path d="M6.20685 9.08008C4.34272 9.08008 1.1308 10.2474 0.0138485 13.2164C-0.0386623 13.3575 0.065276 13.5085 0.216245 13.5085H12.1964C12.3473 13.5085 12.4524 13.3575 12.3987 13.2164C11.2818 10.2463 8.06989 9.08008 6.20576 9.08008H6.20685Z" fill="white"/>
<path d="M20.6594 9.08008C18.7952 9.08008 15.5833 10.2474 14.4664 13.2164C14.4139 13.3575 14.5178 13.5085 14.6687 13.5085H26.6489C26.7998 13.5085 26.9049 13.3575 26.8512 13.2164C25.7343 10.2463 22.5224 9.08008 20.6583 9.08008H20.6594Z" fill="white"/>
<path d="M35.1413 9.08008C33.2772 9.08008 30.0652 10.2474 28.9483 13.2164C28.8958 13.3575 28.9997 13.5085 29.1507 13.5085H41.1308C41.2818 13.5085 41.3868 13.3575 41.3332 13.2164C40.2162 10.2463 37.0043 9.08008 35.1402 9.08008H35.1413Z" fill="white"/>
<path d="M14.624 2C13.1099 2 10.4876 2.95942 9.6234 5.40992C9.59933 5.47994 9.65184 5.55213 9.72623 5.55213H19.5217C19.595 5.55213 19.6486 5.47885 19.6245 5.40992C18.7614 2.96051 16.138 2 14.624 2Z" fill="white"/>
<path d="M26.6456 2C25.1315 2 22.5092 2.95942 21.645 5.40992C21.6209 5.47994 21.6734 5.55213 21.7478 5.55213H31.5433C31.6166 5.55213 31.6702 5.47885 31.6461 5.40992C30.783 2.96051 28.1596 2 26.6456 2Z" fill="white"/>
<path d="M113.624 10.2014C113.624 8.61181 112.331 7.31934 110.742 7.31934C109.152 7.31934 107.86 8.61181 107.86 10.2014V13.31C107.86 14.8996 109.152 16.1921 110.742 16.1921C112.331 16.1921 113.624 14.8996 113.624 13.31V10.2014ZM112.275 13.31C112.275 14.1557 111.588 14.8456 110.74 14.8456C109.892 14.8456 109.204 14.1578 109.204 13.31V10.2014C109.204 9.3557 109.892 8.66583 110.74 8.66583C111.588 8.66583 112.275 9.35363 112.275 10.2014V13.31Z" fill="white"/>
<path d="M117.348 3.7085H107.796C107.424 3.7085 107.122 4.00979 107.122 4.38174C107.122 4.75369 107.424 5.05499 107.796 5.05499H117.348C117.72 5.05499 118.021 4.75369 118.021 4.38174C118.021 4.00979 117.72 3.7085 117.348 3.7085Z" fill="white"/>
<path d="M116.286 5.45996C115.914 5.45996 115.613 5.76126 115.613 6.13321V18.2995C115.613 19.168 114.906 19.8745 114.038 19.8745H113.493C113.121 19.8745 112.82 20.1758 112.82 20.5478C112.82 20.9197 113.121 21.221 113.493 21.221H114.038C115.648 21.221 116.959 19.9099 116.959 18.2995V6.13321C116.959 5.76126 116.658 5.45996 116.286 5.45996Z" fill="white"/>
<path d="M105.612 7.21141C105.969 6.4405 105.909 5.55324 105.449 4.83635C104.992 4.12362 104.215 3.69971 103.369 3.69971C103.365 3.69971 103.361 3.69971 103.359 3.69971L102.389 3.70387C101.522 3.70802 100.816 4.41659 100.816 5.28309V20.5476C100.816 20.9195 101.117 21.2208 101.489 21.2208C101.861 21.2208 102.162 20.9195 102.162 20.5476V5.28309C102.162 5.15633 102.266 5.05036 102.393 5.05036L103.363 5.04623C103.756 5.04623 104.103 5.23324 104.315 5.56363C104.527 5.89402 104.554 6.28674 104.388 6.64414L102.914 9.81506C102.79 10.0831 102.856 10.4031 103.076 10.6026C103.103 10.6275 105.834 13.1086 104.928 15.6312C104.652 16.4021 103.885 16.2545 103.662 16.1922C103.305 16.0862 102.931 16.2899 102.825 16.6473C102.719 17.0047 102.923 17.3787 103.28 17.4847C104.034 17.7091 105.618 17.7049 106.197 16.0862C107.185 13.3392 105.196 10.8561 104.336 9.95429L105.609 7.21349L105.612 7.21141Z" fill="white"/>
<path d="M140.699 10.6311C140.699 10.6311 140.699 10.6186 140.699 10.6145V6.14486C140.699 4.67992 139.509 3.48926 138.044 3.48926C137.672 3.48926 137.371 3.79058 137.371 4.16253C137.371 4.53448 137.672 4.83578 138.044 4.83578C138.705 4.83578 139.253 5.33031 139.338 5.96824H137.429C137.057 5.96824 136.756 6.26953 136.756 6.64148C136.756 7.01343 137.057 7.31473 137.429 7.31473H139.351V8.28513H137.429C137.057 8.28513 136.756 8.58643 136.756 8.95838C136.756 9.33033 137.057 9.63162 137.429 9.63162H139.351V10.602H127.189V9.63162H129.111C129.483 9.63162 129.784 9.33033 129.784 8.95838C129.784 8.58643 129.483 8.28513 129.111 8.28513H127.189V7.31473H129.111C129.483 7.31473 129.784 7.01343 129.784 6.64148C129.784 6.26953 129.483 5.96824 129.111 5.96824H127.201C127.286 5.33031 127.835 4.83578 128.496 4.83578C128.868 4.83578 129.169 4.53448 129.169 4.16253C129.169 3.79058 128.868 3.48926 128.496 3.48926C127.031 3.48926 125.84 4.67992 125.84 6.14486V10.6062H125.77C124.903 10.6103 124.197 11.3189 124.197 12.1854V13.5734C124.197 13.9454 124.498 14.2467 124.87 14.2467C125.242 14.2467 125.543 13.9454 125.543 13.5734V12.1854C125.543 12.0587 125.647 11.9527 125.772 11.9527H140.423C140.55 11.9527 140.654 12.0566 140.654 12.1854V13.5734C140.654 13.9454 140.955 14.2467 141.327 14.2467C141.699 14.2467 142 13.9454 142 13.5734V12.1854C142 11.4103 141.435 10.762 140.693 10.6311H140.699Z" fill="white"/>
<path d="M131.571 8.93651C131.731 8.93651 131.891 8.88039 132.018 8.76611C132.296 8.51883 132.321 8.09287 132.074 7.81442C131.845 7.55676 131.719 7.22429 131.719 6.87936C131.719 6.10221 132.35 5.47052 133.128 5.47052C133.499 5.47052 133.801 5.16922 133.801 4.79727C133.801 4.42532 133.499 4.12402 133.128 4.12402C131.606 4.12402 130.37 5.36039 130.37 6.88144C130.37 7.55676 130.617 8.20714 131.066 8.71208C131.199 8.86169 131.384 8.93859 131.569 8.93859L131.571 8.93651Z" fill="white"/>
<path d="M133.13 8.28744C132.758 8.28744 132.456 8.58874 132.456 8.96069C132.456 9.33264 132.758 9.63394 133.13 9.63394C134.651 9.63394 135.887 8.39757 135.887 6.87652C135.887 6.2947 135.708 5.73782 135.37 5.26613C135.151 4.96483 134.732 4.89626 134.428 5.11237C134.127 5.33055 134.059 5.7503 134.275 6.05367C134.447 6.29471 134.539 6.5773 134.539 6.87652C134.539 7.65367 133.907 8.28536 133.13 8.28536V8.28744Z" fill="white"/>
<path d="M136.589 15.3695C137.15 15.118 137.449 14.5217 137.321 13.9211C137.192 13.3206 136.672 12.9009 136.057 12.9009H128.498C128.126 12.9009 127.824 13.2022 127.824 13.5741C127.824 13.9461 128.126 14.2474 128.498 14.2474H135.795L133.088 15.4692C133.073 15.4754 133.063 15.4837 133.048 15.492C133.026 15.5045 133.001 15.517 132.98 15.5315C132.961 15.544 132.947 15.5585 132.93 15.5731C132.913 15.5876 132.897 15.6001 132.882 15.6147C132.866 15.6313 132.853 15.65 132.839 15.6666C132.826 15.6832 132.811 15.6978 132.801 15.7165C132.789 15.7352 132.78 15.7539 132.77 15.7746C132.76 15.7933 132.749 15.8121 132.741 15.8328C132.733 15.8536 132.726 15.8744 132.72 15.8973C132.714 15.918 132.708 15.9367 132.703 15.9575C132.699 15.9845 132.697 16.0115 132.695 16.0385C132.695 16.0531 132.691 16.0677 132.691 16.0822V16.7367H125.842C125.47 16.7367 125.169 17.038 125.169 17.41C125.169 17.7819 125.47 18.0832 125.842 18.0832H132.691V19.4173C132.691 19.7809 132.396 20.076 132.032 20.076H131.261C130.889 20.076 130.588 20.3773 130.588 20.7492C130.588 21.1212 130.889 21.4225 131.261 21.4225H132.032C133.138 21.4225 134.038 20.5227 134.038 19.4173V16.5165L136.587 15.3674L136.589 15.3695Z" fill="white"/>
<path d="M140.888 16.7388H135.212C134.84 16.7388 134.538 17.0401 134.538 17.412C134.538 17.784 134.84 18.0853 135.212 18.0853H140.888C141.26 18.0853 141.562 17.784 141.562 17.412C141.562 17.0401 141.26 16.7388 140.888 16.7388Z" fill="white"/>
<path d="M65.4973 14.195H57.2001C56.4728 14.195 55.8474 13.7565 55.571 13.1311H66.1767C66.5487 13.1311 66.85 12.8298 66.85 12.4578C66.85 12.0859 66.5487 11.7846 66.1767 11.7846H55.4172V10.783H64.6557C65.8983 10.783 66.9103 9.77107 66.9103 8.52847V7.24225C66.9103 5.77731 65.7196 4.58665 64.2547 4.58665H60.5082V3.97991C60.5082 3.60796 60.2069 3.30664 59.8349 3.30664C59.463 3.30664 59.1617 3.60796 59.1617 3.97991V4.58665H56.7284C55.2635 4.58665 54.0728 5.77731 54.0728 7.24225V12.4121C54.0728 14.1389 55.4775 15.5436 57.2043 15.5436H65.5014C66.8147 15.5436 67.8827 16.6116 67.8827 17.9249V18.3031C67.8827 19.1716 67.1762 19.8781 66.3076 19.8781H65.7632C65.3913 19.8781 65.09 20.1794 65.09 20.5514C65.09 20.9233 65.3913 21.2246 65.7632 21.2246H66.3076C67.918 21.2246 69.2292 19.9134 69.2292 18.3031V17.9249C69.2292 15.8698 67.5565 14.1971 65.5014 14.1971L65.4973 14.195ZM55.4172 7.24225C55.4172 6.52121 56.0032 5.93522 56.7243 5.93522H64.2526C64.9736 5.93522 65.5596 6.52121 65.5596 7.24225V8.52847C65.5596 9.02925 65.1523 9.43447 64.6536 9.43447H55.4151V7.24225H55.4172Z" fill="white"/>
<path d="M63.519 7.12451H57.3621C56.9901 7.12451 56.6888 7.42581 56.6888 7.79776C56.6888 8.16971 56.9901 8.471 57.3621 8.471H63.519C63.8909 8.471 64.1922 8.16971 64.1922 7.79776C64.1922 7.42581 63.8909 7.12451 63.519 7.12451Z" fill="white"/>
<path d="M63.2717 17.0277C62.8998 17.0277 62.5985 17.329 62.5985 17.701V18.2786C62.5985 18.5799 62.1475 18.9166 61.5449 18.9166H58.8561V16.4999C58.8561 16.128 58.5548 15.8267 58.1829 15.8267C57.8109 15.8267 57.5096 16.128 57.5096 16.4999V18.9166H54.8207C54.2181 18.9166 53.7673 18.5799 53.7673 18.2786V17.701C53.7673 17.329 53.466 17.0277 53.094 17.0277C52.7221 17.0277 52.4208 17.329 52.4208 17.701V18.2786C52.4208 19.3737 53.4971 20.2631 54.8207 20.2631H61.5449C62.8914 20.2631 63.945 19.3903 63.945 18.2786V17.701C63.945 17.329 63.6437 17.0277 63.2717 17.0277Z" fill="white"/>
<path d="M89.7423 14.195H81.4452C80.7179 14.195 80.0924 13.7565 79.816 13.1311H90.4218C90.7937 13.1311 91.095 12.8298 91.095 12.4578C91.095 12.0859 90.7937 11.7846 90.4218 11.7846H79.6623V10.783H88.9007C90.1433 10.783 91.1553 9.77107 91.1553 8.52847V7.24225C91.1553 5.77731 89.9647 4.58665 88.4997 4.58665H84.7532V3.97991C84.7532 3.60796 84.4519 3.30664 84.08 3.30664C83.708 3.30664 83.4067 3.60796 83.4067 3.97991V4.58665H80.9735C79.5085 4.58665 78.3179 5.77731 78.3179 7.24225V12.4121C78.3179 14.1389 79.7226 15.5436 81.4493 15.5436H89.7465C91.0597 15.5436 92.1278 16.6116 92.1278 17.9249V18.3031C92.1278 19.1716 91.4213 19.8781 90.5527 19.8781H90.0083C89.6363 19.8781 89.335 20.1794 89.335 20.5514C89.335 20.9233 89.6363 21.2246 90.0083 21.2246H90.5527C92.1631 21.2246 93.4743 19.9134 93.4743 18.3031V17.9249C93.4743 15.8698 91.8015 14.1971 89.7465 14.1971L89.7423 14.195ZM79.6623 7.24225C79.6623 6.52121 80.2483 5.93522 80.9693 5.93522H88.4976C89.2187 5.93522 89.8047 6.52121 89.8047 7.24225V8.52847C89.8047 9.02925 89.3974 9.43447 88.8987 9.43447H79.6602V7.24225H79.6623Z" fill="white"/>
<path d="M87.7641 7.12451H81.6073C81.2353 7.12451 80.934 7.42581 80.934 7.79776C80.934 8.16971 81.2353 8.471 81.6073 8.471H87.7641C88.1361 8.471 88.4374 8.16971 88.4374 7.79776C88.4374 7.42581 88.1361 7.12451 87.7641 7.12451Z" fill="white"/>
<path d="M87.517 17.0277C87.1451 17.0277 86.8438 17.329 86.8438 17.701V18.2786C86.8438 18.5799 86.3928 18.9166 85.7902 18.9166H83.1014V16.4999C83.1014 16.128 82.8001 15.8267 82.4282 15.8267C82.0562 15.8267 81.7549 16.128 81.7549 16.4999V18.9166H79.0661C78.4635 18.9166 78.0126 18.5799 78.0126 18.2786V17.701C78.0126 17.329 77.7113 17.0277 77.3393 17.0277C76.9674 17.0277 76.6661 17.329 76.6661 17.701V18.2786C76.6661 19.3737 77.7425 20.2631 79.0661 20.2631H85.7902C87.1367 20.2631 88.1903 19.3903 88.1903 18.2786V17.701C88.1903 17.329 87.889 17.0277 87.517 17.0277Z" fill="white"/>
</g>
<defs>
<clipPath id="clip0_95_768">
<rect width="142" height="24" fill="white"/>
</clipPath>
</defs>
</svg>
