<svg width="142" height="24" viewBox="0 0 142 24" fill="none" xmlns="http://www.w3.org/2000/svg">
<path d="M11.5126 17.0279C9.1387 17.0279 5.05817 18.5048 3.60318 22.2593C3.52004 22.4726 3.67429 22.7034 3.90402 22.7034H19.1223C19.3509 22.7034 19.5052 22.4726 19.4231 22.2593C17.9682 18.5048 13.8876 17.0279 11.5137 17.0279H11.5126Z" fill="#16B9B3"/>
<path d="M30.0337 17.0279C27.6597 17.0279 23.5792 18.5048 22.1242 22.2593C22.0411 22.4726 22.1953 22.7034 22.4251 22.7034H37.6434C37.872 22.7034 38.0263 22.4726 37.9442 22.2593C36.4892 18.5048 32.4087 17.0279 30.0348 17.0279H30.0337Z" fill="#FFA10B"/>
<path d="M6.20685 9.08025C4.34272 9.08025 1.1308 10.2475 0.0138485 13.2166C-0.0386623 13.3577 0.065276 13.5087 0.216245 13.5087H12.1964C12.3473 13.5087 12.4524 13.3577 12.3987 13.2166C11.2818 10.2464 8.06989 9.08025 6.20576 9.08025H6.20685Z" fill="#F9E41C"/>
<path d="M20.6594 9.08025C18.7952 9.08025 15.5833 10.2475 14.4664 13.2166C14.4139 13.3577 14.5178 13.5087 14.6687 13.5087H26.6489C26.7998 13.5087 26.9049 13.3577 26.8512 13.2166C25.7343 10.2464 22.5224 9.08025 20.6583 9.08025H20.6594Z" fill="#16B9B3"/>
<path d="M35.1413 9.08025C33.2772 9.08025 30.0652 10.2475 28.9483 13.2166C28.8958 13.3577 28.9997 13.5087 29.1507 13.5087H41.1308C41.2818 13.5087 41.3868 13.3577 41.3332 13.2166C40.2162 10.2464 37.0043 9.08025 35.1402 9.08025H35.1413Z" fill="#16B9B3"/>
<path d="M14.624 2.00018C13.1099 2.00018 10.4876 2.9596 9.6234 5.41011C9.59933 5.48012 9.65184 5.55232 9.72623 5.55232H19.5217C19.595 5.55232 19.6486 5.47903 19.6245 5.41011C18.7614 2.9607 16.138 2.00018 14.624 2.00018Z" fill="#16B9B3"/>
<path d="M26.6456 2.00018C25.1315 2.00018 22.5092 2.9596 21.645 5.41011C21.6209 5.48012 21.6734 5.55232 21.7478 5.55232H31.5433C31.6166 5.55232 31.6702 5.47903 31.6461 5.41011C30.783 2.9607 28.1596 2.00018 26.6456 2.00018Z" fill="#16B9B3"/>
<path d="M113.624 10.2017C113.624 8.6121 112.331 7.31963 110.742 7.31963C109.152 7.31963 107.86 8.6121 107.86 10.2017V13.3103C107.86 14.8999 109.152 16.1924 110.742 16.1924C112.331 16.1924 113.624 14.8999 113.624 13.3103V10.2017ZM112.275 13.3103C112.275 14.156 111.588 14.8459 110.74 14.8459C109.892 14.8459 109.204 14.1581 109.204 13.3103V10.2017C109.204 9.35599 109.892 8.66612 110.74 8.66612C111.588 8.66612 112.275 9.35392 112.275 10.2017V13.3103Z" fill="#536166"/>
<path d="M117.348 3.70868H107.796C107.424 3.70868 107.122 4.00998 107.122 4.38193C107.122 4.75387 107.424 5.05517 107.796 5.05517H117.348C117.72 5.05517 118.021 4.75387 118.021 4.38193C118.021 4.00998 117.72 3.70868 117.348 3.70868Z" fill="#536166"/>
<path d="M116.286 5.45998C115.914 5.45998 115.613 5.76127 115.613 6.13322V18.2995C115.613 19.168 114.906 19.8746 114.038 19.8746H113.493C113.121 19.8746 112.82 20.1759 112.82 20.5478C112.82 20.9198 113.121 21.2211 113.493 21.2211H114.038C115.648 21.2211 116.959 19.9099 116.959 18.2995V6.13322C116.959 5.76127 116.658 5.45998 116.286 5.45998Z" fill="#536166"/>
<path d="M105.612 7.21142C105.969 6.44051 105.909 5.55325 105.449 4.83637C104.992 4.12364 104.215 3.69972 103.369 3.69972C103.365 3.69972 103.361 3.69972 103.359 3.69972L102.389 3.70388C101.522 3.70804 100.816 4.41661 100.816 5.2831V20.5476C100.816 20.9195 101.117 21.2208 101.489 21.2208C101.861 21.2208 102.162 20.9195 102.162 20.5476V5.2831C102.162 5.15635 102.266 5.05037 102.393 5.05037L103.363 5.04624C103.756 5.04624 104.103 5.23325 104.315 5.56364C104.527 5.89403 104.554 6.28675 104.388 6.64415L102.914 9.81507C102.79 10.0831 102.856 10.4031 103.076 10.6026C103.103 10.6276 105.834 13.1086 104.928 15.6312C104.652 16.4021 103.885 16.2546 103.662 16.1922C103.305 16.0862 102.931 16.2899 102.825 16.6473C102.719 17.0047 102.923 17.3787 103.28 17.4847C104.034 17.7091 105.618 17.7049 106.197 16.0862C107.185 13.3392 105.196 10.8561 104.336 9.9543L105.609 7.2135L105.612 7.21142Z" fill="#536166"/>
<path d="M140.699 10.6315C140.699 10.6315 140.699 10.6191 140.699 10.6149V6.14528C140.699 4.68034 139.509 3.48969 138.044 3.48969C137.672 3.48969 137.371 3.79101 137.371 4.16296C137.371 4.53491 137.672 4.8362 138.044 4.8362C138.705 4.8362 139.253 5.33074 139.338 5.96866H137.429C137.057 5.96866 136.756 6.26996 136.756 6.64191C136.756 7.01386 137.057 7.31516 137.429 7.31516H139.351V8.28556H137.429C137.057 8.28556 136.756 8.58686 136.756 8.9588C136.756 9.33075 137.057 9.63205 137.429 9.63205H139.351V10.6025H127.189V9.63205H129.111C129.483 9.63205 129.784 9.33075 129.784 8.9588C129.784 8.58686 129.483 8.28556 129.111 8.28556H127.189V7.31516H129.111C129.483 7.31516 129.784 7.01386 129.784 6.64191C129.784 6.26996 129.483 5.96866 129.111 5.96866H127.201C127.286 5.33074 127.835 4.8362 128.496 4.8362C128.868 4.8362 129.169 4.53491 129.169 4.16296C129.169 3.79101 128.868 3.48969 128.496 3.48969C127.031 3.48969 125.84 4.68034 125.84 6.14528V10.6066H125.77C124.903 10.6107 124.197 11.3193 124.197 12.1858V13.5739C124.197 13.9458 124.498 14.2471 124.87 14.2471C125.242 14.2471 125.543 13.9458 125.543 13.5739V12.1858C125.543 12.0591 125.647 11.9531 125.772 11.9531H140.423C140.55 11.9531 140.654 12.057 140.654 12.1858V13.5739C140.654 13.9458 140.955 14.2471 141.327 14.2471C141.699 14.2471 142 13.9458 142 13.5739V12.1858C142 11.4108 141.435 10.7624 140.693 10.6315H140.699Z" fill="#536166"/>
<path d="M131.571 8.9366C131.731 8.9366 131.891 8.88048 132.018 8.7662C132.296 8.51892 132.321 8.09296 132.074 7.81452C131.845 7.55685 131.719 7.22438 131.719 6.87945C131.719 6.1023 132.35 5.47061 133.128 5.47061C133.499 5.47061 133.801 5.16931 133.801 4.79736C133.801 4.42541 133.499 4.12411 133.128 4.12411C131.606 4.12411 130.37 5.36049 130.37 6.88153C130.37 7.55686 130.617 8.20723 131.066 8.71217C131.199 8.86178 131.384 8.93868 131.569 8.93868L131.571 8.9366Z" fill="#536166"/>
<path d="M133.13 8.28789C132.758 8.28789 132.456 8.58918 132.456 8.96113C132.456 9.33308 132.758 9.63438 133.13 9.63438C134.651 9.63438 135.887 8.39801 135.887 6.87697C135.887 6.29515 135.708 5.73826 135.37 5.26657C135.151 4.96527 134.732 4.8967 134.428 5.11281C134.127 5.33099 134.059 5.75074 134.275 6.05412C134.447 6.29515 134.539 6.57774 134.539 6.87697C134.539 7.65411 133.907 8.28581 133.13 8.28581V8.28789Z" fill="#536166"/>
<path d="M136.589 15.3697C137.15 15.1183 137.449 14.522 137.321 13.9214C137.192 13.3209 136.672 12.9012 136.057 12.9012H128.498C128.126 12.9012 127.824 13.2025 127.824 13.5744C127.824 13.9464 128.126 14.2477 128.498 14.2477H135.795L133.088 15.4695C133.073 15.4757 133.063 15.484 133.048 15.4923C133.026 15.5048 133.001 15.5173 132.98 15.5318C132.961 15.5443 132.947 15.5588 132.93 15.5734C132.913 15.5879 132.897 15.6004 132.882 15.615C132.866 15.6316 132.853 15.6503 132.839 15.6669C132.826 15.6835 132.811 15.6981 132.801 15.7168C132.789 15.7355 132.78 15.7542 132.77 15.7749C132.76 15.7936 132.749 15.8123 132.741 15.8331C132.733 15.8539 132.726 15.8747 132.72 15.8975C132.714 15.9183 132.708 15.937 132.703 15.9578C132.699 15.9848 132.697 16.0118 132.695 16.0388C132.695 16.0534 132.691 16.0679 132.691 16.0825V16.737H125.842C125.47 16.737 125.169 17.0383 125.169 17.4103C125.169 17.7822 125.47 18.0835 125.842 18.0835H132.691V19.4175C132.691 19.7812 132.396 20.0763 132.032 20.0763H131.261C130.889 20.0763 130.588 20.3776 130.588 20.7495C130.588 21.1215 130.889 21.4228 131.261 21.4228H132.032C133.138 21.4228 134.038 20.523 134.038 19.4175V16.5168L136.587 15.3677L136.589 15.3697Z" fill="#536166"/>
<path d="M140.888 16.7389H135.212C134.84 16.7389 134.538 17.0402 134.538 17.4122C134.538 17.7841 134.84 18.0854 135.212 18.0854H140.888C141.26 18.0854 141.562 17.7841 141.562 17.4122C141.562 17.0402 141.26 16.7389 140.888 16.7389Z" fill="#536166"/>
<path d="M65.4973 14.1954H57.2001C56.4728 14.1954 55.8474 13.757 55.571 13.1315H66.1767C66.5487 13.1315 66.85 12.8302 66.85 12.4583C66.85 12.0863 66.5487 11.7851 66.1767 11.7851H55.4172V10.7835H64.6557C65.8983 10.7835 66.9103 9.77153 66.9103 8.52893V7.24271C66.9103 5.77777 65.7196 4.58711 64.2547 4.58711H60.5082V3.98037C60.5082 3.60842 60.2069 3.3071 59.8349 3.3071C59.463 3.3071 59.1617 3.60842 59.1617 3.98037V4.58711H56.7284C55.2635 4.58711 54.0728 5.77777 54.0728 7.24271V12.4126C54.0728 14.1393 55.4775 15.544 57.2043 15.544H65.5014C66.8147 15.544 67.8827 16.6121 67.8827 17.9253V18.3035C67.8827 19.1721 67.1762 19.8786 66.3076 19.8786H65.7632C65.3913 19.8786 65.09 20.1799 65.09 20.5518C65.09 20.9238 65.3913 21.2251 65.7632 21.2251H66.3076C67.918 21.2251 69.2292 19.9139 69.2292 18.3035V17.9253C69.2292 15.8703 67.5565 14.1975 65.5014 14.1975L65.4973 14.1954ZM55.4172 7.24271C55.4172 6.52167 56.0032 5.93568 56.7243 5.93568H64.2526C64.9736 5.93568 65.5596 6.52167 65.5596 7.24271V8.52893C65.5596 9.02971 65.1523 9.43493 64.6536 9.43493H55.4151V7.24271H55.4172Z" fill="#536166"/>
<path d="M63.519 7.12491H57.3621C56.9901 7.12491 56.6888 7.42621 56.6888 7.79815C56.6888 8.1701 56.9901 8.4714 57.3621 8.4714H63.519C63.8909 8.4714 64.1922 8.1701 64.1922 7.79815C64.1922 7.42621 63.8909 7.12491 63.519 7.12491Z" fill="#536166"/>
<path d="M63.2717 17.0279C62.8998 17.0279 62.5985 17.3292 62.5985 17.7012V18.2788C62.5985 18.5801 62.1475 18.9168 61.5449 18.9168H58.8561V16.5001C58.8561 16.1282 58.5548 15.8269 58.1829 15.8269C57.8109 15.8269 57.5096 16.1282 57.5096 16.5001V18.9168H54.8207C54.2181 18.9168 53.7673 18.5801 53.7673 18.2788V17.7012C53.7673 17.3292 53.466 17.0279 53.094 17.0279C52.7221 17.0279 52.4208 17.3292 52.4208 17.7012V18.2788C52.4208 19.3739 53.4971 20.2633 54.8207 20.2633H61.5449C62.8914 20.2633 63.945 19.3905 63.945 18.2788V17.7012C63.945 17.3292 63.6437 17.0279 63.2717 17.0279Z" fill="#536166"/>
<path d="M89.7423 14.1954H81.4452C80.7179 14.1954 80.0924 13.757 79.816 13.1315H90.4218C90.7937 13.1315 91.095 12.8302 91.095 12.4583C91.095 12.0863 90.7937 11.7851 90.4218 11.7851H79.6623V10.7835H88.9007C90.1433 10.7835 91.1553 9.77153 91.1553 8.52893V7.24271C91.1553 5.77777 89.9647 4.58711 88.4997 4.58711H84.7532V3.98037C84.7532 3.60842 84.4519 3.3071 84.08 3.3071C83.708 3.3071 83.4067 3.60842 83.4067 3.98037V4.58711H80.9735C79.5085 4.58711 78.3179 5.77777 78.3179 7.24271V12.4126C78.3179 14.1393 79.7226 15.544 81.4493 15.544H89.7465C91.0597 15.544 92.1278 16.6121 92.1278 17.9253V18.3035C92.1278 19.1721 91.4213 19.8786 90.5527 19.8786H90.0083C89.6363 19.8786 89.335 20.1799 89.335 20.5518C89.335 20.9238 89.6363 21.2251 90.0083 21.2251H90.5527C92.1631 21.2251 93.4743 19.9139 93.4743 18.3035V17.9253C93.4743 15.8703 91.8015 14.1975 89.7465 14.1975L89.7423 14.1954ZM79.6623 7.24271C79.6623 6.52167 80.2483 5.93568 80.9693 5.93568H88.4976C89.2187 5.93568 89.8047 6.52167 89.8047 7.24271V8.52893C89.8047 9.02971 89.3974 9.43493 88.8987 9.43493H79.6602V7.24271H79.6623Z" fill="#536166"/>
<path d="M87.7641 7.12491H81.6073C81.2353 7.12491 80.934 7.42621 80.934 7.79815C80.934 8.1701 81.2353 8.4714 81.6073 8.4714H87.7641C88.1361 8.4714 88.4374 8.1701 88.4374 7.79815C88.4374 7.42621 88.1361 7.12491 87.7641 7.12491Z" fill="#536166"/>
<path d="M87.517 17.0279C87.1451 17.0279 86.8438 17.3292 86.8438 17.7012V18.2788C86.8438 18.5801 86.3928 18.9168 85.7902 18.9168H83.1014V16.5001C83.1014 16.1282 82.8001 15.8269 82.4282 15.8269C82.0562 15.8269 81.7549 16.1282 81.7549 16.5001V18.9168H79.0661C78.4635 18.9168 78.0126 18.5801 78.0126 18.2788V17.7012C78.0126 17.3292 77.7113 17.0279 77.3393 17.0279C76.9674 17.0279 76.6661 17.3292 76.6661 17.7012V18.2788C76.6661 19.3739 77.7425 20.2633 79.0661 20.2633H85.7902C87.1367 20.2633 88.1903 19.3905 88.1903 18.2788V17.7012C88.1903 17.3292 87.889 17.0279 87.517 17.0279Z" fill="#536166"/>
</svg>
