<svg width="200" height="44" viewBox="0 0 200 44" fill="none" xmlns="http://www.w3.org/2000/svg">
<path d="M24.5201 31.9381C19.464 31.9381 10.773 35.0768 7.6741 43.0561C7.49702 43.5094 7.82555 44 8.31486 44H40.7276C41.2146 44 41.5431 43.5094 41.3684 43.0561C38.2694 35.0768 29.5785 31.9381 24.5224 31.9381H24.5201Z" fill="#16B9B3"/>
<path d="M63.9671 31.9381C58.911 31.9381 50.2201 35.0768 47.1212 43.0561C46.9441 43.5094 47.2726 44 47.7619 44H80.1747C80.6617 44 80.9902 43.5094 80.8154 43.0561C77.7165 35.0768 69.0256 31.9381 63.9695 31.9381H63.9671Z" fill="#FFA10B"/>
<path d="M13.2196 15.0472C9.24923 15.0472 2.4083 17.5279 0.0293654 23.8379C-0.082475 24.1378 0.138899 24.4587 0.46044 24.4587H25.9764C26.2979 24.4587 26.5216 24.1378 26.4074 23.8379C24.0285 17.5256 17.1876 15.0472 13.2172 15.0472H13.2196Z" fill="#F9E41C"/>
<path d="M44.0013 15.0472C40.0309 15.0472 33.19 17.5279 30.8111 23.8379C30.6993 24.1378 30.9206 24.4587 31.2422 24.4587H56.7581C57.0796 24.4587 57.3033 24.1378 57.1891 23.8379C54.8102 17.5256 47.9693 15.0472 43.9989 15.0472H44.0013Z" fill="#16B9B3"/>
<path d="M74.8459 15.0472C70.8756 15.0472 64.0347 17.5279 61.6558 23.8379C61.5439 24.1378 61.7653 24.4587 62.0868 24.4587H87.6027C87.9243 24.4587 88.148 24.1378 88.0338 23.8379C85.6549 17.5256 78.8139 15.0472 74.8436 15.0472H74.8459Z" fill="#16B9B3"/>
<path d="M31.1466 0C27.9219 0 22.3369 2.03901 20.4962 7.24693C20.4449 7.39573 20.5567 7.54916 20.7152 7.54916H41.5781C41.7342 7.54916 41.8483 7.39341 41.7971 7.24693C39.9587 2.04133 34.3714 0 31.1466 0Z" fill="#16B9B3"/>
<path d="M56.7511 0C53.5264 0 47.9414 2.03901 46.1007 7.24693C46.0494 7.39573 46.1612 7.54916 46.3197 7.54916H67.1826C67.3387 7.54916 67.4528 7.39341 67.4016 7.24693C65.5632 2.04133 59.9758 0 56.7511 0Z" fill="#16B9B3"/>
<path d="M102.771 3.60815H100.29C99.8726 3.60815 99.5347 3.94527 99.5347 4.36144V12.2989C99.5347 12.7151 99.8726 13.0522 100.29 13.0522H102.771C105.322 13.0522 107.396 10.9806 107.396 8.43712V8.22321C107.396 5.67737 105.32 3.60815 102.771 3.60815ZM105.886 8.43712C105.886 10.1506 104.488 11.5456 102.771 11.5456H101.045V5.11473H102.771C104.488 5.11473 105.886 6.50971 105.886 8.22321V8.43712Z" fill="#536166"/>
<path d="M124.235 3.60815H123.748C121.714 3.60815 120.06 5.25887 120.06 7.28857V9.37641C120.06 11.4061 121.714 13.0568 123.748 13.0568H124.235C126.269 13.0568 127.924 11.4061 127.924 9.37641V7.28857C127.924 5.25887 126.269 3.60815 124.235 3.60815ZM126.411 9.37408C126.411 10.5714 125.435 11.5456 124.235 11.5456H123.748C122.548 11.5456 121.572 10.5714 121.572 9.37408V7.28624C121.572 6.08888 122.548 5.11473 123.748 5.11473H124.235C125.435 5.11473 126.411 6.08888 126.411 7.28624V9.37408Z" fill="#536166"/>
<path d="M114.92 4.48487C114.701 3.92455 114.17 3.56419 113.568 3.56419C112.967 3.56419 112.436 3.92688 112.217 4.48487L109.263 12.0247C109.111 12.413 109.302 12.8501 109.691 13.0012C109.782 13.0361 109.875 13.0524 109.966 13.0524C110.269 13.0524 110.553 12.871 110.67 12.5734L111.476 10.5135H115.661L116.467 12.5734C116.618 12.9617 117.059 13.1524 117.446 13.0012C117.835 12.8501 118.026 12.413 117.874 12.0247L114.92 4.48487ZM112.066 9.00692L113.566 5.17538L115.067 9.00692H112.066Z" fill="#536166"/>
<path d="M138.746 3.60815H136.265C135.848 3.60815 135.51 3.94527 135.51 4.36144V12.2989C135.51 12.7151 135.848 13.0522 136.265 13.0522H138.746C141.298 13.0522 143.372 10.9806 143.372 8.43712V8.22321C143.372 5.67737 141.296 3.60815 138.746 3.60815ZM141.862 8.43712C141.862 10.1506 140.464 11.5456 138.746 11.5456H137.02V5.11473H138.746C140.464 5.11473 141.862 6.50971 141.862 8.22321V8.43712Z" fill="#536166"/>
<path d="M160.21 3.60815H159.724C157.689 3.60815 156.035 5.25887 156.035 7.28857V9.37641C156.035 11.4061 157.689 13.0568 159.724 13.0568H160.21C162.245 13.0568 163.899 11.4061 163.899 9.37641V7.28857C163.899 5.25887 162.245 3.60815 160.21 3.60815ZM162.387 9.37408C162.387 10.5714 161.41 11.5456 160.21 11.5456H159.724C158.524 11.5456 157.547 10.5714 157.547 9.37408V7.28624C157.547 6.08888 158.524 5.11473 159.724 5.11473H160.21C161.41 5.11473 162.387 6.08888 162.387 7.28624V9.37408Z" fill="#536166"/>
<path d="M150.895 4.48487C150.676 3.92455 150.145 3.56419 149.544 3.56419C148.943 3.56419 148.411 3.92688 148.192 4.48487L145.238 12.0247C145.086 12.413 145.278 12.8501 145.667 13.0012C146.056 13.1524 146.494 12.9617 146.645 12.5734L147.451 10.5135H151.636L152.442 12.5734C152.559 12.871 152.843 13.0524 153.146 13.0524C153.237 13.0524 153.33 13.0361 153.421 13.0012C153.81 12.8501 154.001 12.413 153.85 12.0247L150.895 4.48487ZM148.041 9.00692L149.541 5.17538L151.042 9.00692H148.041Z" fill="#536166"/>
<path d="M168.181 29.648C168.181 27.8694 166.732 26.4233 164.95 26.4233C163.167 26.4233 161.718 27.8694 161.718 29.648V33.1261C161.718 34.9047 163.167 36.3509 164.95 36.3509C166.732 36.3509 168.181 34.9047 168.181 33.1261V29.648ZM166.669 33.1261C166.669 34.0724 165.898 34.8443 164.947 34.8443C163.997 34.8443 163.225 34.0747 163.225 33.1261V29.648C163.225 28.7017 163.997 27.9298 164.947 27.9298C165.898 27.9298 166.669 28.6994 166.669 29.648V33.1261Z" fill="#536166"/>
<path d="M172.357 22.3825H161.646C161.229 22.3825 160.891 22.7196 160.891 23.1358C160.891 23.5519 161.229 23.8891 161.646 23.8891H172.357C172.774 23.8891 173.112 23.5519 173.112 23.1358C173.112 22.7196 172.774 22.3825 172.357 22.3825Z" fill="#536166"/>
<path d="M171.166 24.3424C170.749 24.3424 170.411 24.6795 170.411 25.0957V38.7084C170.411 39.6802 169.619 40.4707 168.645 40.4707H168.035C167.618 40.4707 167.28 40.8078 167.28 41.224C167.28 41.6402 167.618 41.9773 168.035 41.9773H168.645C170.451 41.9773 171.921 40.5102 171.921 38.7084V25.0957C171.921 24.6795 171.583 24.3424 171.166 24.3424Z" fill="#536166"/>
<path d="M159.197 26.3024C159.598 25.4398 159.53 24.4471 159.015 23.6449C158.503 22.8475 157.631 22.3732 156.683 22.3732C156.678 22.3732 156.673 22.3732 156.671 22.3732L155.583 22.3778C154.611 22.3825 153.819 23.1753 153.819 24.1448V41.224C153.819 41.6402 154.157 41.9773 154.574 41.9773C154.991 41.9773 155.329 41.6402 155.329 41.224V24.1448C155.329 24.003 155.446 23.8844 155.588 23.8844L156.676 23.8798C157.116 23.8798 157.505 24.089 157.743 24.4587C157.981 24.8284 158.011 25.2678 157.824 25.6677L156.173 29.2156C156.033 29.5155 156.107 29.8735 156.354 30.0967C156.385 30.1246 159.446 32.9006 158.43 35.7231C158.12 36.5857 157.261 36.4206 157.011 36.3509C156.611 36.2323 156.191 36.4602 156.072 36.8601C155.953 37.2599 156.182 37.6784 156.583 37.797C157.428 38.0481 159.204 38.0434 159.854 36.2323C160.961 33.1587 158.731 30.3804 157.766 29.3713L159.195 26.3047L159.197 26.3024Z" fill="#536166"/>
<path d="M198.541 30.1292C198.541 30.1292 198.541 30.1153 198.541 30.1107V25.1097C198.541 23.4705 197.206 22.1383 195.564 22.1383C195.147 22.1383 194.809 22.4755 194.809 22.8917C194.809 23.3078 195.147 23.6449 195.564 23.6449C196.305 23.6449 196.92 24.1983 197.015 24.912H194.874C194.457 24.912 194.119 25.2492 194.119 25.6653C194.119 26.0815 194.457 26.4186 194.874 26.4186H197.029V27.5044H194.874C194.457 27.5044 194.119 27.8415 194.119 28.2577C194.119 28.6738 194.457 29.011 194.874 29.011H197.029V30.0967H183.392V29.011H185.547C185.964 29.011 186.302 28.6738 186.302 28.2577C186.302 27.8415 185.964 27.5044 185.547 27.5044H183.392V26.4186H185.547C185.964 26.4186 186.302 26.0815 186.302 25.6653C186.302 25.2492 185.964 24.912 185.547 24.912H183.406C183.501 24.1983 184.116 23.6449 184.857 23.6449C185.274 23.6449 185.612 23.3078 185.612 22.8917C185.612 22.4755 185.274 22.1383 184.857 22.1383C183.215 22.1383 181.88 23.4705 181.88 25.1097V30.1013H181.8C180.829 30.106 180.036 30.8988 180.036 31.8683V33.4214C180.036 33.8376 180.374 34.1747 180.791 34.1747C181.208 34.1747 181.546 33.8376 181.546 33.4214V31.8683C181.546 31.7265 181.663 31.608 181.803 31.608H198.232C198.374 31.608 198.49 31.7242 198.49 31.8683V33.4214C198.49 33.8376 198.828 34.1747 199.245 34.1747C199.662 34.1747 200 33.8376 200 33.4214V31.8683C200 31.0011 199.366 30.2757 198.534 30.1292H198.541Z" fill="#536166"/>
<path d="M188.306 28.2321C188.485 28.2321 188.664 28.1693 188.807 28.0414C189.119 27.7648 189.147 27.2881 188.87 26.9766C188.613 26.6883 188.471 26.3163 188.471 25.9304C188.471 25.0608 189.179 24.354 190.051 24.354C190.468 24.354 190.806 24.0169 190.806 23.6007C190.806 23.1846 190.468 22.8475 190.051 22.8475C188.345 22.8475 186.959 24.2308 186.959 25.9327C186.959 26.6883 187.236 27.416 187.739 27.981C187.889 28.1484 188.096 28.2344 188.303 28.2344L188.306 28.2321Z" fill="#536166"/>
<path d="M190.053 27.5067C189.636 27.5067 189.298 27.8438 189.298 28.26C189.298 28.6762 189.636 29.0133 190.053 29.0133C191.759 29.0133 193.145 27.6299 193.145 25.928C193.145 25.2771 192.945 24.654 192.565 24.1262C192.32 23.7891 191.85 23.7124 191.509 23.9541C191.172 24.1983 191.095 24.6679 191.337 25.0074C191.53 25.2771 191.633 25.5932 191.633 25.928C191.633 26.7976 190.925 27.5044 190.053 27.5044V27.5067Z" fill="#536166"/>
<path d="M193.933 35.4302C194.562 35.1489 194.897 34.4816 194.753 33.8097C194.608 33.1378 194.026 32.6681 193.336 32.6681H184.86C184.442 32.6681 184.105 33.0052 184.105 33.4214C184.105 33.8376 184.442 34.1747 184.86 34.1747H193.043L190.007 35.5418C189.99 35.5488 189.979 35.558 189.962 35.5673C189.937 35.5813 189.909 35.5953 189.885 35.6115C189.864 35.6255 189.848 35.6418 189.829 35.658C189.811 35.6743 189.792 35.6883 189.776 35.7045C189.757 35.7231 189.743 35.7441 189.727 35.7627C189.713 35.7813 189.697 35.7975 189.685 35.8185C189.671 35.8394 189.662 35.8603 189.65 35.8835C189.638 35.9045 189.627 35.9254 189.617 35.9486C189.608 35.9719 189.601 35.9952 189.594 36.0207C189.587 36.044 189.58 36.0649 189.576 36.0881C189.571 36.1184 189.569 36.1486 189.566 36.1788C189.566 36.1951 189.562 36.2114 189.562 36.2277V36.96H181.882C181.465 36.96 181.127 37.2971 181.127 37.7133C181.127 38.1295 181.465 38.4666 181.882 38.4666H189.562V39.9592C189.562 40.3661 189.231 40.6962 188.823 40.6962H187.958C187.541 40.6962 187.204 41.0334 187.204 41.4495C187.204 41.8657 187.541 42.2028 187.958 42.2028H188.823C190.062 42.2028 191.071 41.1961 191.071 39.9592V36.7136L193.93 35.4279L193.933 35.4302Z" fill="#536166"/>
<path d="M198.753 36.9623H192.388C191.971 36.9623 191.633 37.2994 191.633 37.7156C191.633 38.1318 191.971 38.4689 192.388 38.4689H198.753C199.171 38.4689 199.508 38.1318 199.508 37.7156C199.508 37.2994 199.171 36.9623 198.753 36.9623Z" fill="#536166"/>
<path d="M114.216 34.1166H104.912C104.097 34.1166 103.396 33.626 103.086 32.9262H114.978C115.395 32.9262 115.733 32.5891 115.733 32.1729C115.733 31.7567 115.395 31.4196 114.978 31.4196H102.913V30.299H113.272C114.666 30.299 115.801 29.1667 115.801 27.7764V26.3372C115.801 24.6981 114.465 23.3659 112.823 23.3659H108.622V22.6871C108.622 22.2709 108.284 21.9337 107.867 21.9337C107.45 21.9337 107.112 22.2709 107.112 22.6871V23.3659H104.383C102.741 23.3659 101.406 24.6981 101.406 26.3372V32.1218C101.406 34.0538 102.981 35.6255 104.917 35.6255H114.221C115.693 35.6255 116.891 36.8205 116.891 38.2899V38.713C116.891 39.6849 116.099 40.4754 115.125 40.4754H114.514C114.097 40.4754 113.759 40.8125 113.759 41.2287C113.759 41.6448 114.097 41.982 114.514 41.982H115.125C116.931 41.982 118.401 40.5149 118.401 38.713V38.2899C118.401 35.9905 116.525 34.1189 114.221 34.1189L114.216 34.1166ZM102.913 26.3372C102.913 25.5305 103.57 24.8748 104.379 24.8748H112.82C113.629 24.8748 114.286 25.5305 114.286 26.3372V27.7764C114.286 28.3367 113.829 28.7901 113.27 28.7901H102.911V26.3372H102.913Z" fill="#536166"/>
<path d="M111.998 26.2047H105.094C104.677 26.2047 104.339 26.5418 104.339 26.958C104.339 27.3742 104.677 27.7113 105.094 27.7113H111.998C112.415 27.7113 112.753 27.3742 112.753 26.958C112.753 26.5418 112.415 26.2047 111.998 26.2047Z" fill="#536166"/>
<path d="M111.721 37.2855C111.304 37.2855 110.966 37.6226 110.966 38.0388V38.6851C110.966 39.0223 110.46 39.3989 109.784 39.3989H106.769V36.695C106.769 36.2788 106.432 35.9417 106.014 35.9417C105.597 35.9417 105.26 36.2788 105.26 36.695V39.3989H102.244C101.569 39.3989 101.063 39.0223 101.063 38.6851V38.0388C101.063 37.6226 100.725 37.2855 100.308 37.2855C99.8912 37.2855 99.5533 37.6226 99.5533 38.0388V38.6851C99.5533 39.9104 100.76 40.9055 102.244 40.9055H109.784C111.294 40.9055 112.476 39.929 112.476 38.6851V38.0388C112.476 37.6226 112.138 37.2855 111.721 37.2855Z" fill="#536166"/>
<path d="M141.403 34.1166H132.099C131.283 34.1166 130.582 33.626 130.272 32.9262H142.165C142.582 32.9262 142.919 32.5891 142.919 32.1729C142.919 31.7567 142.582 31.4196 142.165 31.4196H130.1V30.299H140.459C141.852 30.299 142.987 29.1667 142.987 27.7764V26.3372C142.987 24.6981 141.652 23.3659 140.009 23.3659H135.808V22.6871C135.808 22.2709 135.47 21.9337 135.053 21.9337C134.636 21.9337 134.298 22.2709 134.298 22.6871V23.3659H131.57C129.927 23.3659 128.592 24.6981 128.592 26.3372V32.1218C128.592 34.0538 130.167 35.6255 132.104 35.6255H141.407C142.88 35.6255 144.077 36.8205 144.077 38.2899V38.713C144.077 39.6849 143.285 40.4754 142.311 40.4754H141.701C141.284 40.4754 140.946 40.8125 140.946 41.2287C140.946 41.6448 141.284 41.982 141.701 41.982H142.311C144.117 41.982 145.587 40.5149 145.587 38.713V38.2899C145.587 35.9905 143.712 34.1189 141.407 34.1189L141.403 34.1166ZM130.1 26.3372C130.1 25.5305 130.757 24.8748 131.565 24.8748H140.007C140.815 24.8748 141.473 25.5305 141.473 26.3372V27.7764C141.473 28.3367 141.016 28.7901 140.457 28.7901H130.097V26.3372H130.1Z" fill="#536166"/>
<path d="M139.184 26.2047H132.281C131.864 26.2047 131.526 26.5418 131.526 26.958C131.526 27.3742 131.864 27.7113 132.281 27.7113H139.184C139.601 27.7113 139.939 27.3742 139.939 26.958C139.939 26.5418 139.601 26.2047 139.184 26.2047Z" fill="#536166"/>
<path d="M138.907 37.2855C138.49 37.2855 138.152 37.6226 138.152 38.0388V38.6851C138.152 39.0223 137.647 39.3989 136.971 39.3989H133.956V36.695C133.956 36.2788 133.618 35.9417 133.201 35.9417C132.784 35.9417 132.446 36.2788 132.446 36.695V39.3989H129.431C128.755 39.3989 128.25 39.0223 128.25 38.6851V38.0388C128.25 37.6226 127.912 37.2855 127.495 37.2855C127.078 37.2855 126.74 37.6226 126.74 38.0388V38.6851C126.74 39.9104 127.947 40.9055 129.431 40.9055H136.971C138.481 40.9055 139.662 39.929 139.662 38.6851V38.0388C139.662 37.6226 139.324 37.2855 138.907 37.2855Z" fill="#536166"/>
</svg>
