<svg width="118" height="92" viewBox="0 0 118 92" fill="none" xmlns="http://www.w3.org/2000/svg">
<path d="M6.60023 66.2715C10.2454 66.2715 13.2005 63.3165 13.2005 59.6713C13.2005 56.0261 10.2454 53.071 6.60023 53.071C2.95503 53.071 0 56.0261 0 59.6713C0 63.3165 2.95503 66.2715 6.60023 66.2715Z" fill="white"/>
<path d="M8.60787 61.2419C10.6076 61.2419 12.2287 59.6208 12.2287 57.621C12.2287 55.6213 10.6076 54.0002 8.60787 54.0002C6.60815 54.0002 4.98706 55.6213 4.98706 57.621C4.98706 59.6208 6.60815 61.2419 8.60787 61.2419Z" fill="#0D3036"/>
<path d="M19.6301 63.3511C23.2753 63.3511 26.2304 60.3961 26.2304 56.7509C26.2304 53.1057 23.2753 50.1506 19.6301 50.1506C15.9849 50.1506 13.0299 53.1057 13.0299 56.7509C13.0299 60.3961 15.9849 63.3511 19.6301 63.3511Z" fill="white"/>
<path d="M21.6376 58.3214C23.6373 58.3214 25.2584 56.7004 25.2584 54.7006C25.2584 52.7009 23.6373 51.0798 21.6376 51.0798C19.6379 51.0798 18.0168 52.7009 18.0168 54.7006C18.0168 56.7004 19.6379 58.3214 21.6376 58.3214Z" fill="#0D3036"/>
<path d="M49.4409 70.6689L46.8943 69.8284L45.0135 75.0459L47.56 75.8864L49.4409 70.6689Z" fill="#FFA10B"/>
<path fill-rule="evenodd" clip-rule="evenodd" d="M48.8475 76.4271L45.1554 86.7098C44.8939 87.4379 44.1243 87.8442 43.4377 87.6167L40.9496 86.7922C40.2636 86.5648 39.9184 85.7891 40.1799 85.061L43.8721 74.7783C44.1335 74.0503 44.9031 73.6439 45.5891 73.8713L48.0771 74.6958C48.7638 74.9233 49.109 75.6991 48.8475 76.4271Z" fill="#0D3036"/>
<path d="M63.4502 51.5973L39.7159 55.1809L40.5017 61.2734L64.236 57.6898L63.4502 51.5973Z" fill="white" fill-opacity="0.84"/>
<path d="M64.3454 59.4958L40.6754 62.99L41.1094 66.2678L64.7793 62.7736L64.3454 59.4958Z" fill="white" fill-opacity="0.84"/>
<path fill-rule="evenodd" clip-rule="evenodd" d="M56.3959 44.2521C63.587 46.5989 67.1686 54.6943 64.3889 62.3183C61.6092 69.9423 53.5138 74.2268 46.3227 71.8799C39.1315 69.5331 35.5506 61.4379 38.3303 53.8139C41.11 46.1899 49.2047 41.9052 56.3959 44.2521ZM55.1329 47.716C49.7453 45.9577 43.6801 49.1683 41.5975 54.8802C39.5147 60.5928 42.198 66.6578 47.5856 68.4161C52.9739 70.1745 59.0389 66.9646 61.1217 61.252C63.2043 55.5401 60.5212 49.4745 55.1329 47.716Z" fill="#827575"/>
<circle cx="87.5" cy="29.5" r="6.5" fill="#F3FDFF" stroke="#A9EDE8" stroke-width="2"/>
<circle cx="106" cy="12" r="11" fill="#F3FDFF" stroke="#A9EDE8" stroke-width="2"/>
</svg>
